<?xml version="1.0" encoding="utf-8"?>
<!-- Generator: Adobe Illustrator 18.1.0, SVG Export Plug-In . SVG Version: 6.00 Build 0)  -->
<svg version="1.1" id="Layer_1" xmlns="http://www.w3.org/2000/svg" xmlns:xlink="http://www.w3.org/1999/xlink" x="0px" y="0px"
	 viewBox="0 0 249 98" enable-background="new 0 0 249 98" xml:space="preserve">
<g>
	<g>
		<path fill="#489BB7" d="M64.4,38.6h11.9c1.8,0,3.5,0.2,4.9,0.7c1.5,0.4,2.8,1.1,3.8,1.9c1.1,0.8,1.9,1.8,2.5,3
			c0.6,1.2,0.9,2.5,0.9,4.1v0.1c0,1.6-0.3,3.1-1,4.4c-0.7,1.3-1.6,2.3-2.8,3.1c-1.2,0.8-2.5,1.5-4.1,1.9c-1.5,0.4-3.2,0.6-4.9,0.6
			h-8.9V70h-2.4V38.6z M75.8,56.2c1.5,0,2.9-0.2,4.2-0.5c1.2-0.4,2.3-0.9,3.2-1.6c0.9-0.7,1.6-1.5,2.1-2.5c0.5-1,0.8-2,0.8-3.2v-0.1
			c0-1.3-0.2-2.4-0.7-3.3c-0.5-0.9-1.2-1.7-2-2.4c-0.9-0.6-1.9-1.1-3.1-1.4c-1.2-0.3-2.6-0.5-4-0.5h-9.3v15.5H75.8z"/>
		<path fill="#489BB7" d="M98.1,77.3c-0.9,0-1.7-0.1-2.4-0.3c-0.7-0.2-1.5-0.4-2.3-0.8l0.8-2c0.6,0.3,1.2,0.5,1.8,0.6
			c0.6,0.1,1.3,0.2,2.3,0.2c0.6,0,1.2-0.1,1.7-0.3c0.5-0.2,1-0.5,1.5-0.9c0.5-0.4,0.9-1,1.4-1.7c0.4-0.7,0.9-1.5,1.3-2.5L92.7,47.1
			h2.7l9.9,20.5l8.6-20.5h2.5l-10.4,23.7c-1.1,2.4-2.2,4.1-3.5,5C101.3,76.9,99.8,77.3,98.1,77.3z"/>
	</g>
	<g>
		<path fill="#EC9041" d="M122.7,39.4h10.9c2.6,0,4.9,0.4,7.1,1.2c2.1,0.8,4,1.9,5.5,3.3c1.5,1.4,2.7,3.1,3.6,5
			c0.8,1.9,1.3,4,1.3,6.2v0.1c0,2.2-0.4,4.3-1.3,6.2c-0.8,1.9-2,3.6-3.6,5c-1.5,1.4-3.4,2.5-5.5,3.3c-2.1,0.8-4.5,1.2-7.1,1.2h-10.9
			V39.4z M133.6,68.7c2.3,0,4.3-0.4,6.2-1.1c1.8-0.7,3.4-1.7,4.7-2.9c1.3-1.2,2.3-2.6,3-4.3c0.7-1.6,1.1-3.4,1.1-5.3v-0.1
			c0-1.9-0.4-3.6-1.1-5.3c-0.7-1.7-1.7-3.1-3-4.3c-1.3-1.2-2.8-2.2-4.7-2.9c-1.8-0.7-3.9-1.1-6.2-1.1h-8.5v27.2H133.6z"/>
		<path fill="#EC9041" d="M166.1,71.4c-1.1,0-2.2-0.2-3.3-0.4c-1.1-0.3-2.1-0.7-3-1.3c-0.9-0.6-1.6-1.3-2.1-2.2
			c-0.5-0.9-0.8-1.9-0.8-3.1v-0.1c0-1.2,0.3-2.3,0.8-3.2c0.5-0.9,1.2-1.7,2.1-2.3c0.9-0.6,2-1.1,3.3-1.4c1.3-0.3,2.7-0.5,4.3-0.5
			c1.7,0,3.1,0.1,4.4,0.3c1.2,0.2,2.4,0.4,3.6,0.7v-1c0-2.3-0.7-4.1-2.1-5.2c-1.4-1.2-3.3-1.7-5.8-1.7c-1.5,0-2.8,0.2-4,0.5
			c-1.2,0.3-2.4,0.8-3.5,1.3l-0.8-1.9c1.3-0.6,2.6-1.1,4-1.5c1.3-0.4,2.8-0.5,4.5-0.5c3.3,0,5.8,0.8,7.6,2.5
			c1.6,1.6,2.4,3.7,2.4,6.5v14.3h-2.2V67c-0.4,0.5-0.9,1.1-1.5,1.6c-0.6,0.5-1.2,1-2,1.4c-0.8,0.4-1.6,0.7-2.6,1
			C168.3,71.3,167.2,71.4,166.1,71.4z M166.3,69.3c1.2,0,2.4-0.2,3.5-0.5c1.1-0.3,2.1-0.8,2.9-1.4c0.8-0.6,1.5-1.3,2-2.2
			c0.5-0.9,0.7-1.8,0.7-2.9v-2.6c-1-0.2-2.2-0.5-3.5-0.7c-1.3-0.2-2.9-0.3-4.6-0.3c-2.5,0-4.5,0.5-5.8,1.5c-1.4,1-2,2.3-2,3.9v0.1
			c0,0.8,0.2,1.6,0.6,2.2c0.4,0.6,0.9,1.2,1.5,1.6c0.6,0.4,1.4,0.8,2.2,1C164.5,69.2,165.3,69.3,166.3,69.3z"/>
		<path fill="#EC9041" d="M193.7,71.3c-0.9,0-1.8-0.1-2.6-0.4c-0.8-0.2-1.5-0.6-2.1-1.1c-0.6-0.5-1.1-1.2-1.4-2
			c-0.3-0.8-0.5-1.7-0.5-2.8V50h-3.5v-2h3.5v-7.3h2.3V48h8.4v2h-8.4v14.7c0,1.6,0.4,2.8,1.3,3.4c0.9,0.7,2,1,3.4,1
			c0.6,0,1.2-0.1,1.7-0.2c0.5-0.1,1.1-0.3,1.8-0.6v2.1c-0.6,0.3-1.2,0.5-1.9,0.6C195.2,71.2,194.5,71.3,193.7,71.3z"/>
		<path fill="#EC9041" d="M211.8,71.4c-1.1,0-2.2-0.2-3.3-0.4c-1.1-0.3-2.1-0.7-3-1.3c-0.9-0.6-1.6-1.3-2.1-2.2
			c-0.5-0.9-0.8-1.9-0.8-3.1v-0.1c0-1.2,0.3-2.3,0.8-3.2c0.5-0.9,1.2-1.7,2.1-2.3c0.9-0.6,2-1.1,3.3-1.4c1.3-0.3,2.7-0.5,4.3-0.5
			c1.7,0,3.1,0.1,4.4,0.3c1.2,0.2,2.4,0.4,3.6,0.7v-1c0-2.3-0.7-4.1-2.1-5.2c-1.4-1.2-3.3-1.7-5.8-1.7c-1.5,0-2.8,0.2-4,0.5
			c-1.2,0.3-2.4,0.8-3.5,1.3l-0.8-1.9c1.3-0.6,2.6-1.1,4-1.5c1.3-0.4,2.8-0.5,4.5-0.5c3.3,0,5.8,0.8,7.6,2.5
			c1.6,1.6,2.4,3.7,2.4,6.5v14.3h-2.3V67c-0.4,0.5-0.9,1.1-1.5,1.6c-0.6,0.5-1.2,1-2,1.4c-0.8,0.4-1.6,0.7-2.6,1
			C214,71.3,212.9,71.4,211.8,71.4z M211.9,69.3c1.2,0,2.4-0.2,3.5-0.5c1.1-0.3,2.1-0.8,2.9-1.4c0.8-0.6,1.5-1.3,2-2.2
			c0.5-0.9,0.7-1.8,0.7-2.9v-2.6c-1-0.2-2.2-0.5-3.5-0.7c-1.3-0.2-2.9-0.3-4.6-0.3c-2.5,0-4.5,0.5-5.8,1.5c-1.4,1-2,2.3-2,3.9v0.1
			c0,0.8,0.2,1.6,0.6,2.2c0.4,0.6,0.9,1.2,1.5,1.6c0.6,0.4,1.4,0.8,2.2,1C210.2,69.2,211,69.3,211.9,69.3z"/>
	</g>
	<g>
		<g>
			<g>
				<defs>
					<path id="SVGID_1_" d="M17.1,40.6L35.9,50v19.3 M17.1,40.6v19.3l18.8,9.5"/>
				</defs>
				<use xlink:href="#SVGID_1_"  overflow="visible" fill="#489BB7"/>
				<clipPath id="SVGID_2_">
					<use xlink:href="#SVGID_1_"  overflow="visible"/>
				</clipPath>
			</g>
		</g>
		<g>
			<g>
				<defs>
					<path id="SVGID_3_" d="M36.9,48.3l-18.7-9.5L37,29.5l18.8,9.4L36.9,48.3L36.9,48.3L36.9,48.3z"/>
				</defs>
				<use xlink:href="#SVGID_3_"  overflow="visible" fill="#EC9041"/>
				<clipPath id="SVGID_4_">
					<use xlink:href="#SVGID_3_"  overflow="visible"/>
				</clipPath>
			</g>
		</g>
		<g>
			<g>
				<defs>
					<polyline id="SVGID_5_" points="38.1,50.1 57,40.6 57,59.9 38.1,69.4 					"/>
				</defs>
				<use xlink:href="#SVGID_5_"  overflow="visible" fill-rule="evenodd" clip-rule="evenodd" fill="#667B83"/>
				<clipPath id="SVGID_6_">
					<use xlink:href="#SVGID_5_"  overflow="visible"/>
				</clipPath>
			</g>
		</g>
		<g>
			<g>
				<defs>
					<path id="SVGID_7_" d="M17.1,62.3l18.8,9.5v19.3 M17.1,62.3v19.3l18.8,9.5"/>
				</defs>
				<use xlink:href="#SVGID_7_"  overflow="visible" fill="#489BB7"/>
				<clipPath id="SVGID_8_">
					<use xlink:href="#SVGID_7_"  overflow="visible"/>
				</clipPath>
			</g>
		</g>
		<g>
			<defs>
				<path id="SVGID_9_" d="M38.1,8.5l18.8,9.5v19.3 M38.1,8.5v19.3l18.8,9.5"/>
			</defs>
			<use xlink:href="#SVGID_9_"  overflow="visible" fill="#EC9041"/>
			<clipPath id="SVGID_10_">
				<use xlink:href="#SVGID_9_"  overflow="visible"/>
			</clipPath>
		</g>
	</g>
	<g>
		<path d="M134,76.8h0.7l-2.5,9.2h5.8l-0.2,0.7h-6.6L134,76.8z"/>
		<path d="M143.2,86.9c-0.5,0-0.9-0.1-1.3-0.2c-0.4-0.2-0.7-0.4-1-0.7c-0.3-0.3-0.5-0.6-0.7-1c-0.2-0.4-0.2-0.8-0.2-1.3
			c0-0.6,0.1-1.1,0.3-1.6c0.2-0.5,0.5-1,0.9-1.4c0.4-0.4,0.8-0.7,1.4-1c0.5-0.2,1.1-0.4,1.6-0.4c0.5,0,0.9,0.1,1.3,0.2
			c0.4,0.2,0.7,0.4,1,0.7s0.5,0.6,0.7,1c0.2,0.4,0.2,0.8,0.2,1.3c0,0.6-0.1,1.1-0.4,1.7c-0.2,0.5-0.6,1-0.9,1.4
			c-0.4,0.4-0.9,0.7-1.4,0.9C144.3,86.8,143.8,86.9,143.2,86.9z M143.3,86.2c0.4,0,0.9-0.1,1.3-0.3s0.8-0.5,1.1-0.8
			c0.3-0.3,0.6-0.7,0.8-1.2c0.2-0.4,0.3-0.9,0.3-1.4c0-0.8-0.2-1.5-0.7-1.9c-0.5-0.4-1.1-0.7-1.8-0.7c-0.5,0-0.9,0.1-1.3,0.3
			c-0.4,0.2-0.8,0.5-1.1,0.8c-0.3,0.3-0.6,0.7-0.8,1.2c-0.2,0.4-0.3,0.9-0.3,1.4c0,0.8,0.2,1.5,0.7,1.9
			C141.9,86,142.5,86.2,143.3,86.2z"/>
		<path d="M150.5,79.5h0.7l-0.4,1.3c0.2-0.2,0.4-0.4,0.6-0.6c0.2-0.2,0.4-0.3,0.6-0.5c0.2-0.1,0.5-0.2,0.7-0.3s0.5-0.1,0.8-0.1
			c0.7,0,1.3,0.2,1.7,0.6c0.4,0.4,0.6,1,0.6,1.7c0,0.2,0,0.3,0,0.5s-0.1,0.3-0.1,0.5l-1.1,4.1H154l1.1-4.1c0-0.1,0.1-0.3,0.1-0.4
			c0-0.2,0-0.3,0-0.4c0-0.5-0.2-1-0.5-1.3s-0.8-0.5-1.4-0.5c-0.3,0-0.6,0.1-0.9,0.2s-0.6,0.3-0.9,0.6c-0.3,0.2-0.5,0.5-0.7,0.8
			c-0.2,0.3-0.4,0.7-0.5,1.1l-1.1,4.1h-0.7L150.5,79.5z"/>
		<path d="M160.6,86.9c-0.4,0-0.8-0.1-1.2-0.2c-0.4-0.2-0.7-0.4-0.9-0.6c-0.3-0.3-0.5-0.6-0.6-1c-0.1-0.4-0.2-0.8-0.2-1.2
			c0-0.6,0.1-1.2,0.3-1.8s0.5-1,0.9-1.4c0.4-0.4,0.8-0.7,1.3-1c0.5-0.2,1-0.3,1.5-0.3c0.4,0,0.8,0.1,1.1,0.2
			c0.3,0.1,0.6,0.3,0.8,0.5s0.4,0.4,0.6,0.7c0.2,0.2,0.3,0.5,0.4,0.8l1.3-5h0.7l-2.8,10.3h-0.7l0.4-1.4c-0.4,0.4-0.8,0.8-1.3,1.1
			C161.8,86.7,161.2,86.9,160.6,86.9z M160.7,86.2c0.5,0,0.9-0.1,1.3-0.3c0.4-0.2,0.8-0.5,1.2-0.8c0.3-0.3,0.6-0.7,0.8-1.2
			s0.3-0.9,0.3-1.4c0-0.3-0.1-0.7-0.2-1c-0.1-0.3-0.3-0.6-0.5-0.8s-0.5-0.4-0.8-0.5s-0.6-0.2-1-0.2c-0.5,0-0.9,0.1-1.4,0.3
			c-0.4,0.2-0.8,0.5-1.1,0.8c-0.3,0.3-0.5,0.8-0.7,1.2c-0.2,0.5-0.2,0.9-0.2,1.4c0,0.4,0.1,0.7,0.2,1s0.3,0.6,0.5,0.8
			s0.4,0.4,0.7,0.5C160,86.2,160.3,86.2,160.7,86.2z"/>
		<path d="M170.1,86.9c-0.5,0-0.9-0.1-1.3-0.2c-0.4-0.2-0.7-0.4-1-0.7c-0.3-0.3-0.5-0.6-0.7-1c-0.2-0.4-0.2-0.8-0.2-1.3
			c0-0.6,0.1-1.1,0.3-1.6c0.2-0.5,0.5-1,0.9-1.4c0.4-0.4,0.8-0.7,1.4-1c0.5-0.2,1.1-0.4,1.6-0.4c0.5,0,0.9,0.1,1.3,0.2
			c0.4,0.2,0.7,0.4,1,0.7s0.5,0.6,0.7,1c0.2,0.4,0.2,0.8,0.2,1.3c0,0.6-0.1,1.1-0.4,1.7c-0.2,0.5-0.6,1-0.9,1.4
			c-0.4,0.4-0.9,0.7-1.4,0.9C171.2,86.8,170.7,86.9,170.1,86.9z M170.2,86.2c0.4,0,0.9-0.1,1.3-0.3s0.8-0.5,1.1-0.8
			c0.3-0.3,0.6-0.7,0.8-1.2c0.2-0.4,0.3-0.9,0.3-1.4c0-0.8-0.2-1.5-0.7-1.9c-0.5-0.4-1.1-0.7-1.8-0.7c-0.5,0-0.9,0.1-1.3,0.3
			c-0.4,0.2-0.8,0.5-1.1,0.8c-0.3,0.3-0.6,0.7-0.8,1.2c-0.2,0.4-0.3,0.9-0.3,1.4c0,0.8,0.2,1.5,0.7,1.9
			C168.8,86,169.4,86.2,170.2,86.2z"/>
		<path d="M177.4,79.5h0.7l-0.4,1.3c0.2-0.2,0.4-0.4,0.6-0.6c0.2-0.2,0.4-0.3,0.6-0.5c0.2-0.1,0.5-0.2,0.7-0.3s0.5-0.1,0.8-0.1
			c0.7,0,1.3,0.2,1.7,0.6c0.4,0.4,0.6,1,0.6,1.7c0,0.2,0,0.3,0,0.5s-0.1,0.3-0.1,0.5l-1.1,4.1h-0.7l1.1-4.1c0-0.1,0.1-0.3,0.1-0.4
			c0-0.2,0-0.3,0-0.4c0-0.5-0.2-1-0.5-1.3s-0.8-0.5-1.4-0.5c-0.3,0-0.6,0.1-0.9,0.2s-0.6,0.3-0.9,0.6c-0.3,0.2-0.5,0.5-0.7,0.8
			c-0.2,0.3-0.4,0.7-0.5,1.1l-1.1,4.1h-0.7L177.4,79.5z"/>
		<path d="M187.9,86.1l5.9-4.6c0.6-0.5,1-0.9,1.3-1.3c0.3-0.4,0.4-0.8,0.4-1.3c0-0.5-0.2-0.9-0.6-1.2c-0.4-0.3-0.9-0.5-1.6-0.5
			c-0.6,0-1.1,0.1-1.6,0.4c-0.5,0.3-0.9,0.6-1.2,1l-0.5-0.5c0.2-0.2,0.4-0.4,0.7-0.6c0.2-0.2,0.5-0.4,0.8-0.5
			c0.3-0.1,0.6-0.3,0.9-0.3c0.3-0.1,0.7-0.1,1-0.1c0.4,0,0.8,0.1,1.2,0.2c0.3,0.1,0.6,0.3,0.9,0.5c0.2,0.2,0.4,0.5,0.6,0.8
			c0.1,0.3,0.2,0.6,0.2,1c0,0.6-0.2,1.1-0.5,1.6c-0.4,0.5-0.9,0.9-1.5,1.4l-5.1,4h5.7l-0.2,0.7h-6.9L187.9,86.1z"/>
		<path d="M200.8,86.9c-0.5,0-1-0.1-1.4-0.3c-0.4-0.2-0.8-0.4-1-0.8s-0.5-0.7-0.6-1.2c-0.1-0.5-0.2-0.9-0.2-1.5
			c0-0.5,0.1-1.1,0.2-1.6s0.3-1,0.5-1.5c0.2-0.5,0.5-0.9,0.8-1.4c0.3-0.4,0.6-0.8,1-1.1c0.4-0.3,0.8-0.5,1.2-0.7
			c0.4-0.2,0.9-0.3,1.4-0.3c0.5,0,1,0.1,1.4,0.3c0.4,0.2,0.8,0.4,1,0.8s0.5,0.7,0.6,1.2s0.2,0.9,0.2,1.5c0,0.8-0.1,1.6-0.4,2.4
			c-0.3,0.8-0.6,1.5-1.1,2.1s-1,1.1-1.6,1.5C202.2,86.7,201.6,86.9,200.8,86.9z M200.9,86.2c0.6,0,1.1-0.2,1.7-0.5s1-0.8,1.4-1.3
			c0.4-0.6,0.7-1.2,0.9-1.9c0.2-0.7,0.3-1.4,0.3-2.2c0-0.4-0.1-0.8-0.2-1.2c-0.1-0.4-0.3-0.7-0.5-1s-0.5-0.5-0.8-0.7
			s-0.7-0.2-1.1-0.2c-0.6,0-1.1,0.2-1.7,0.5s-1,0.8-1.4,1.3c-0.4,0.6-0.7,1.2-0.9,1.9c-0.2,0.7-0.3,1.4-0.3,2.2
			c0,0.4,0.1,0.8,0.2,1.2c0.1,0.4,0.3,0.7,0.5,1c0.2,0.3,0.5,0.5,0.8,0.7C200.1,86.1,200.4,86.2,200.9,86.2z"/>
		<path d="M210.1,77.6l-2.1,0.7l0-0.7l2.5-0.8h0.6l-2.7,10h-0.7L210.1,77.6z"/>
		<path d="M214.7,86.9c-0.4,0-0.8,0-1.1-0.1s-0.6-0.2-0.9-0.4c-0.3-0.2-0.5-0.4-0.7-0.6c-0.2-0.2-0.4-0.4-0.6-0.7l0.6-0.4
			c0.3,0.5,0.7,0.8,1.1,1.1s1,0.4,1.6,0.4c0.5,0,0.9-0.1,1.3-0.2s0.7-0.4,1-0.6s0.5-0.5,0.6-0.9c0.2-0.3,0.2-0.7,0.2-1
			c0-0.3-0.1-0.6-0.2-0.9s-0.3-0.5-0.5-0.7c-0.2-0.2-0.5-0.3-0.8-0.4c-0.3-0.1-0.6-0.1-0.9-0.1s-0.7,0-1.1,0.1
			c-0.4,0.1-0.8,0.3-1.2,0.5l-0.5-0.4l1.6-4.8h5.3l-0.2,0.7h-4.7l-1.2,3.6c0.1-0.1,0.2-0.1,0.4-0.2c0.2-0.1,0.3-0.1,0.5-0.1
			c0.2,0,0.4-0.1,0.5-0.1c0.2,0,0.3,0,0.5,0c0.5,0,0.9,0.1,1.3,0.2c0.4,0.1,0.7,0.3,1,0.6c0.3,0.2,0.5,0.5,0.6,0.9s0.2,0.7,0.2,1.1
			c0,0.5-0.1,0.9-0.3,1.3c-0.2,0.4-0.5,0.8-0.8,1.1c-0.3,0.3-0.8,0.6-1.3,0.7C215.8,86.8,215.3,86.9,214.7,86.9z"/>
	</g>
</g>
</svg>
