<?xml version="1.0" encoding="utf-8"?>
<!-- Generator: Adobe Illustrator 18.1.1, SVG Export Plug-In . SVG Version: 6.00 Build 0)  -->
<svg version="1.1" xmlns="http://www.w3.org/2000/svg" xmlns:xlink="http://www.w3.org/1999/xlink" x="0px" y="0px"
	 viewBox="0 0 810.9 605.9" enable-background="new 0 0 810.9 605.9" xml:space="preserve">
<g id="Courtesy">
</g>
<g id="Pattern">
	<g>
		<g>
			<g>
				<polygon fill="none" stroke="#000000" stroke-width="3" stroke-miterlimit="10" points="152.8,353.6 102.5,378.7 102.5,429.4 
					152.8,453.8 203.5,429.1 203.5,378.7 				"/>
			</g>
		</g>
		<g>
			<g>
				<polygon fill="none" stroke="#000000" stroke-width="3" stroke-miterlimit="10" points="152.8,302.9 102.5,328 102.5,378.7 
					152.8,403.1 203.5,378.4 203.5,328 				"/>
			</g>
		</g>
		<line fill="none" stroke="#000000" stroke-width="3" stroke-miterlimit="10" x1="152.8" y1="454.1" x2="152.8" y2="403.1"/>
		<line fill="none" stroke="#000000" stroke-width="3" stroke-miterlimit="10" x1="152.8" y1="353.9" x2="152.8" y2="302.9"/>
		<g>
			<g>
				<polygon fill="none" stroke="#000000" stroke-width="3" stroke-miterlimit="10" points="51.8,353.6 1.5,378.7 1.5,429.4 
					51.8,453.8 102.5,429.1 102.5,378.7 				"/>
			</g>
		</g>
		<g>
			<g>
				<polygon fill="none" stroke="#000000" stroke-width="3" stroke-miterlimit="10" points="51.8,302.9 1.5,328 1.5,378.7 
					51.8,403.1 102.5,378.4 102.5,328 				"/>
			</g>
		</g>
		<line fill="none" stroke="#000000" stroke-width="3" stroke-miterlimit="10" x1="51.8" y1="454.1" x2="51.8" y2="403.1"/>
		<line fill="none" stroke="#000000" stroke-width="3" stroke-miterlimit="10" x1="51.8" y1="353.9" x2="51.8" y2="302.9"/>
		<g>
			<g>
				<polygon fill="none" stroke="#000000" stroke-width="3" stroke-miterlimit="10" points="354.7,353.6 304.4,378.7 304.4,429.4 
					354.7,453.8 405.4,429.1 405.4,378.7 				"/>
			</g>
		</g>
		<g>
			<g>
				<polygon fill="none" stroke="#000000" stroke-width="3" stroke-miterlimit="10" points="354.7,302.9 304.4,328 304.4,378.7 
					354.7,403.1 405.4,378.4 405.4,328 				"/>
			</g>
		</g>
		<line fill="none" stroke="#000000" stroke-width="3" stroke-miterlimit="10" x1="354.7" y1="454.1" x2="354.7" y2="403.1"/>
		<line fill="none" stroke="#000000" stroke-width="3" stroke-miterlimit="10" x1="354.7" y1="353.9" x2="354.7" y2="302.9"/>
		<g>
			<g>
				<polygon fill="none" stroke="#000000" stroke-width="3" stroke-miterlimit="10" points="253.7,353.6 203.4,378.7 203.4,429.4 
					253.7,453.8 304.4,429.1 304.4,378.7 				"/>
			</g>
		</g>
		<g>
			<g>
				<polygon fill="none" stroke="#000000" stroke-width="3" stroke-miterlimit="10" points="253.7,302.9 203.4,328 203.4,378.7 
					253.7,403.1 304.4,378.4 304.4,328 				"/>
			</g>
		</g>
		<line fill="none" stroke="#000000" stroke-width="3" stroke-miterlimit="10" x1="253.7" y1="454.1" x2="253.7" y2="403.1"/>
		<line fill="none" stroke="#000000" stroke-width="3" stroke-miterlimit="10" x1="253.7" y1="353.9" x2="253.7" y2="302.9"/>
		<g>
			<g>
				<polygon fill="none" stroke="#000000" stroke-width="3" stroke-miterlimit="10" points="152.8,504.1 102.5,529.2 102.5,579.9 
					152.8,604.3 203.5,579.6 203.5,529.2 				"/>
			</g>
		</g>
		<g>
			<g>
				<polygon fill="none" stroke="#000000" stroke-width="3" stroke-miterlimit="10" points="152.8,453.4 102.5,478.5 102.5,529.2 
					152.8,553.6 203.5,528.9 203.5,478.5 				"/>
			</g>
		</g>
		<line fill="none" stroke="#000000" stroke-width="3" stroke-miterlimit="10" x1="152.8" y1="604.6" x2="152.8" y2="553.6"/>
		<line fill="none" stroke="#000000" stroke-width="3" stroke-miterlimit="10" x1="152.8" y1="504.4" x2="152.8" y2="453.4"/>
		<g>
			<g>
				<polygon fill="none" stroke="#000000" stroke-width="3" stroke-miterlimit="10" points="51.8,504.1 1.5,529.2 1.5,579.9 
					51.8,604.3 102.5,579.6 102.5,529.2 				"/>
			</g>
		</g>
		<g>
			<g>
				<polygon fill="none" stroke="#000000" stroke-width="3" stroke-miterlimit="10" points="51.8,453.4 1.5,478.5 1.5,529.2 
					51.8,553.6 102.5,528.9 102.5,478.5 				"/>
			</g>
		</g>
		<line fill="none" stroke="#000000" stroke-width="3" stroke-miterlimit="10" x1="51.8" y1="604.6" x2="51.8" y2="553.6"/>
		<line fill="none" stroke="#000000" stroke-width="3" stroke-miterlimit="10" x1="51.8" y1="504.4" x2="51.8" y2="453.4"/>
		<g>
			<g>
				<polygon fill="none" stroke="#000000" stroke-width="3" stroke-miterlimit="10" points="354.7,504.1 304.4,529.2 304.4,579.9 
					354.7,604.3 405.4,579.6 405.4,529.2 				"/>
			</g>
		</g>
		<g>
			<g>
				<polygon fill="none" stroke="#000000" stroke-width="3" stroke-miterlimit="10" points="354.7,453.4 304.4,478.5 304.4,529.2 
					354.7,553.6 405.4,528.9 405.4,478.5 				"/>
			</g>
		</g>
		<line fill="none" stroke="#000000" stroke-width="3" stroke-miterlimit="10" x1="354.7" y1="604.6" x2="354.7" y2="553.6"/>
		<line fill="none" stroke="#000000" stroke-width="3" stroke-miterlimit="10" x1="354.7" y1="504.4" x2="354.7" y2="453.4"/>
		<g>
			<g>
				<polygon fill="none" stroke="#000000" stroke-width="3" stroke-miterlimit="10" points="253.7,504.1 203.4,529.2 203.4,579.9 
					253.7,604.3 304.4,579.6 304.4,529.2 				"/>
			</g>
		</g>
		<g>
			<g>
				<polygon fill="none" stroke="#000000" stroke-width="3" stroke-miterlimit="10" points="253.7,453.4 203.4,478.5 203.4,529.2 
					253.7,553.6 304.4,528.9 304.4,478.5 				"/>
			</g>
		</g>
		<line fill="none" stroke="#000000" stroke-width="3" stroke-miterlimit="10" x1="253.7" y1="604.6" x2="253.7" y2="553.6"/>
		<line fill="none" stroke="#000000" stroke-width="3" stroke-miterlimit="10" x1="253.7" y1="504.4" x2="253.7" y2="453.4"/>
		<g>
			<g>
				<polygon fill="none" stroke="#000000" stroke-width="3" stroke-miterlimit="10" points="556.7,353.6 506.4,378.7 506.4,429.4 
					556.7,453.8 607.4,429.1 607.4,378.7 				"/>
			</g>
		</g>
		<g>
			<g>
				<polygon fill="none" stroke="#000000" stroke-width="3" stroke-miterlimit="10" points="556.7,302.9 506.4,328 506.4,378.7 
					556.7,403.1 607.4,378.4 607.4,328 				"/>
			</g>
		</g>
		<line fill="none" stroke="#000000" stroke-width="3" stroke-miterlimit="10" x1="556.7" y1="454.1" x2="556.7" y2="403.1"/>
		<line fill="none" stroke="#000000" stroke-width="3" stroke-miterlimit="10" x1="556.7" y1="353.9" x2="556.7" y2="302.9"/>
		<g>
			<g>
				<polygon fill="none" stroke="#000000" stroke-width="3" stroke-miterlimit="10" points="455.7,353.6 405.4,378.7 405.4,429.4 
					455.7,453.8 506.4,429.1 506.4,378.7 				"/>
			</g>
		</g>
		<g>
			<g>
				<polygon fill="none" stroke="#000000" stroke-width="3" stroke-miterlimit="10" points="455.7,302.9 405.4,328 405.4,378.7 
					455.7,403.1 506.4,378.4 506.4,328 				"/>
			</g>
		</g>
		<line fill="none" stroke="#000000" stroke-width="3" stroke-miterlimit="10" x1="455.7" y1="454.1" x2="455.7" y2="403.1"/>
		<line fill="none" stroke="#000000" stroke-width="3" stroke-miterlimit="10" x1="455.7" y1="353.9" x2="455.7" y2="302.9"/>
		<g>
			<g>
				<polygon fill="none" stroke="#000000" stroke-width="3" stroke-miterlimit="10" points="758.7,353.6 708.4,378.7 708.4,429.4 
					758.7,453.8 809.4,429.1 809.4,378.7 				"/>
			</g>
		</g>
		<g>
			<g>
				<polygon fill="none" stroke="#000000" stroke-width="3" stroke-miterlimit="10" points="758.7,302.9 708.4,328 708.4,378.7 
					758.7,403.1 809.4,378.4 809.4,328 				"/>
			</g>
		</g>
		<line fill="none" stroke="#000000" stroke-width="3" stroke-miterlimit="10" x1="758.7" y1="454.1" x2="758.7" y2="403.1"/>
		<line fill="none" stroke="#000000" stroke-width="3" stroke-miterlimit="10" x1="758.7" y1="353.9" x2="758.7" y2="302.9"/>
		<g>
			<g>
				<polygon fill="none" stroke="#000000" stroke-width="3" stroke-miterlimit="10" points="657.7,353.6 607.4,378.7 607.4,429.4 
					657.7,453.8 708.4,429.1 708.4,378.7 				"/>
			</g>
		</g>
		<g>
			<g>
				<polygon fill="none" stroke="#000000" stroke-width="3" stroke-miterlimit="10" points="657.7,302.9 607.4,328 607.4,378.7 
					657.7,403.1 708.4,378.4 708.4,328 				"/>
			</g>
		</g>
		<line fill="none" stroke="#000000" stroke-width="3" stroke-miterlimit="10" x1="657.7" y1="454.1" x2="657.7" y2="403.1"/>
		<line fill="none" stroke="#000000" stroke-width="3" stroke-miterlimit="10" x1="657.7" y1="353.9" x2="657.7" y2="302.9"/>
		<g>
			<g>
				<polygon fill="none" stroke="#000000" stroke-width="3" stroke-miterlimit="10" points="556.7,504.1 506.4,529.2 506.4,579.9 
					556.7,604.3 607.4,579.6 607.4,529.2 				"/>
			</g>
		</g>
		<g>
			<g>
				<polygon fill="none" stroke="#000000" stroke-width="3" stroke-miterlimit="10" points="556.7,453.4 506.4,478.5 506.4,529.2 
					556.7,553.6 607.4,528.9 607.4,478.5 				"/>
			</g>
		</g>
		<line fill="none" stroke="#000000" stroke-width="3" stroke-miterlimit="10" x1="556.7" y1="604.6" x2="556.7" y2="553.6"/>
		<line fill="none" stroke="#000000" stroke-width="3" stroke-miterlimit="10" x1="556.7" y1="504.4" x2="556.7" y2="453.4"/>
		<g>
			<g>
				<polygon fill="none" stroke="#000000" stroke-width="3" stroke-miterlimit="10" points="455.7,504.1 405.4,529.2 405.4,579.9 
					455.7,604.3 506.4,579.6 506.4,529.2 				"/>
			</g>
		</g>
		<g>
			<g>
				<polygon fill="none" stroke="#000000" stroke-width="3" stroke-miterlimit="10" points="455.7,453.4 405.4,478.5 405.4,529.2 
					455.7,553.6 506.4,528.9 506.4,478.5 				"/>
			</g>
		</g>
		<line fill="none" stroke="#000000" stroke-width="3" stroke-miterlimit="10" x1="455.7" y1="604.6" x2="455.7" y2="553.6"/>
		<line fill="none" stroke="#000000" stroke-width="3" stroke-miterlimit="10" x1="455.7" y1="504.4" x2="455.7" y2="453.4"/>
		<g>
			<g>
				<polygon fill="none" stroke="#000000" stroke-width="3" stroke-miterlimit="10" points="758.7,504.1 708.4,529.2 708.4,579.9 
					758.7,604.3 809.4,579.6 809.4,529.2 				"/>
			</g>
		</g>
		<g>
			<g>
				<polygon fill="none" stroke="#000000" stroke-width="3" stroke-miterlimit="10" points="758.7,453.4 708.4,478.5 708.4,529.2 
					758.7,553.6 809.4,528.9 809.4,478.5 				"/>
			</g>
		</g>
		<line fill="none" stroke="#000000" stroke-width="3" stroke-miterlimit="10" x1="758.7" y1="604.6" x2="758.7" y2="553.6"/>
		<line fill="none" stroke="#000000" stroke-width="3" stroke-miterlimit="10" x1="758.7" y1="504.4" x2="758.7" y2="453.4"/>
		<g>
			<g>
				<polygon fill="none" stroke="#000000" stroke-width="3" stroke-miterlimit="10" points="657.7,504.1 607.4,529.2 607.4,579.9 
					657.7,604.3 708.4,579.6 708.4,529.2 				"/>
			</g>
		</g>
		<g>
			<g>
				<polygon fill="none" stroke="#000000" stroke-width="3" stroke-miterlimit="10" points="657.7,453.4 607.4,478.5 607.4,529.2 
					657.7,553.6 708.4,528.9 708.4,478.5 				"/>
			</g>
		</g>
		<line fill="none" stroke="#000000" stroke-width="3" stroke-miterlimit="10" x1="657.7" y1="604.6" x2="657.7" y2="553.6"/>
		<line fill="none" stroke="#000000" stroke-width="3" stroke-miterlimit="10" x1="657.7" y1="504.4" x2="657.7" y2="453.4"/>
		<g>
			<g>
				<polygon fill="none" stroke="#000000" stroke-width="3" stroke-miterlimit="10" points="152.8,52.4 102.5,77.4 102.5,128.1 
					152.8,152.5 203.5,127.8 203.5,77.4 				"/>
			</g>
		</g>
		<g>
			<g>
				<polygon fill="none" stroke="#000000" stroke-width="3" stroke-miterlimit="10" points="152.8,1.7 102.5,26.8 102.5,77.5 
					152.8,101.8 203.5,77.1 203.5,26.8 				"/>
			</g>
		</g>
		<line fill="none" stroke="#000000" stroke-width="3" stroke-miterlimit="10" x1="152.8" y1="152.8" x2="152.8" y2="101.8"/>
		<line fill="none" stroke="#000000" stroke-width="3" stroke-miterlimit="10" x1="152.8" y1="52.7" x2="152.8" y2="1.7"/>
		<g>
			<g>
				<polygon fill="none" stroke="#000000" stroke-width="3" stroke-miterlimit="10" points="51.8,52.4 1.5,77.4 1.5,128.1 
					51.8,152.5 102.5,127.8 102.5,77.4 				"/>
			</g>
		</g>
		<g>
			<g>
				<polygon fill="none" stroke="#000000" stroke-width="3" stroke-miterlimit="10" points="51.8,1.7 1.5,26.8 1.5,77.5 51.8,101.8 
					102.5,77.1 102.5,26.8 				"/>
			</g>
		</g>
		<line fill="none" stroke="#000000" stroke-width="3" stroke-miterlimit="10" x1="51.8" y1="152.8" x2="51.8" y2="101.8"/>
		<line fill="none" stroke="#000000" stroke-width="3" stroke-miterlimit="10" x1="51.8" y1="52.7" x2="51.8" y2="1.7"/>
		<g>
			<g>
				<polygon fill="none" stroke="#000000" stroke-width="3" stroke-miterlimit="10" points="354.7,52.4 304.4,77.4 304.4,128.1 
					354.7,152.5 405.4,127.8 405.4,77.4 				"/>
			</g>
		</g>
		<g>
			<g>
				<polygon fill="none" stroke="#000000" stroke-width="3" stroke-miterlimit="10" points="354.7,1.7 304.4,26.8 304.4,77.5 
					354.7,101.8 405.4,77.1 405.4,26.8 				"/>
			</g>
		</g>
		<line fill="none" stroke="#000000" stroke-width="3" stroke-miterlimit="10" x1="354.7" y1="152.8" x2="354.7" y2="101.8"/>
		<line fill="none" stroke="#000000" stroke-width="3" stroke-miterlimit="10" x1="354.7" y1="52.7" x2="354.7" y2="1.7"/>
		<g>
			<g>
				<polygon fill="none" stroke="#000000" stroke-width="3" stroke-miterlimit="10" points="253.7,52.4 203.4,77.4 203.4,128.1 
					253.7,152.5 304.4,127.8 304.4,77.4 				"/>
			</g>
		</g>
		<g>
			<g>
				<polygon fill="none" stroke="#000000" stroke-width="3" stroke-miterlimit="10" points="253.7,1.7 203.4,26.8 203.4,77.5 
					253.7,101.8 304.4,77.1 304.4,26.8 				"/>
			</g>
		</g>
		<line fill="none" stroke="#000000" stroke-width="3" stroke-miterlimit="10" x1="253.7" y1="152.8" x2="253.7" y2="101.8"/>
		<line fill="none" stroke="#000000" stroke-width="3" stroke-miterlimit="10" x1="253.7" y1="52.7" x2="253.7" y2="1.7"/>
		<g>
			<g>
				<polygon fill="none" stroke="#000000" stroke-width="3" stroke-miterlimit="10" points="152.8,202.9 102.5,227.9 102.5,278.7 
					152.8,303 203.5,278.3 203.5,227.9 				"/>
			</g>
		</g>
		<g>
			<g>
				<polygon fill="none" stroke="#000000" stroke-width="3" stroke-miterlimit="10" points="152.8,152.2 102.5,177.3 102.5,228 
					152.8,252.3 203.5,227.6 203.5,177.3 				"/>
			</g>
		</g>
		<line fill="none" stroke="#000000" stroke-width="3" stroke-miterlimit="10" x1="152.8" y1="303.3" x2="152.8" y2="252.3"/>
		<line fill="none" stroke="#000000" stroke-width="3" stroke-miterlimit="10" x1="152.8" y1="203.2" x2="152.8" y2="152.2"/>
		<g>
			<g>
				<polygon fill="none" stroke="#000000" stroke-width="3" stroke-miterlimit="10" points="51.8,202.9 1.5,227.9 1.5,278.7 
					51.8,303 102.5,278.3 102.5,227.9 				"/>
			</g>
		</g>
		<g>
			<g>
				<polygon fill="none" stroke="#000000" stroke-width="3" stroke-miterlimit="10" points="51.8,152.2 1.5,177.3 1.5,228 
					51.8,252.3 102.5,227.6 102.5,177.3 				"/>
			</g>
		</g>
		<line fill="none" stroke="#000000" stroke-width="3" stroke-miterlimit="10" x1="51.8" y1="303.3" x2="51.8" y2="252.3"/>
		<line fill="none" stroke="#000000" stroke-width="3" stroke-miterlimit="10" x1="51.8" y1="203.2" x2="51.8" y2="152.2"/>
		<g>
			<g>
				<polygon fill="none" stroke="#000000" stroke-width="3" stroke-miterlimit="10" points="354.7,202.9 304.4,227.9 304.4,278.7 
					354.7,303 405.4,278.3 405.4,227.9 				"/>
			</g>
		</g>
		<g>
			<g>
				<polygon fill="none" stroke="#000000" stroke-width="3" stroke-miterlimit="10" points="354.7,152.2 304.4,177.3 304.4,228 
					354.7,252.3 405.4,227.6 405.4,177.3 				"/>
			</g>
		</g>
		<line fill="none" stroke="#000000" stroke-width="3" stroke-miterlimit="10" x1="354.7" y1="303.3" x2="354.7" y2="252.3"/>
		<line fill="none" stroke="#000000" stroke-width="3" stroke-miterlimit="10" x1="354.7" y1="203.2" x2="354.7" y2="152.2"/>
		<g>
			<g>
				<polygon fill="none" stroke="#000000" stroke-width="3" stroke-miterlimit="10" points="253.7,202.9 203.4,227.9 203.4,278.7 
					253.7,303 304.4,278.3 304.4,227.9 				"/>
			</g>
		</g>
		<g>
			<g>
				<polygon fill="none" stroke="#000000" stroke-width="3" stroke-miterlimit="10" points="253.7,152.2 203.4,177.3 203.4,228 
					253.7,252.3 304.4,227.6 304.4,177.3 				"/>
			</g>
		</g>
		<line fill="none" stroke="#000000" stroke-width="3" stroke-miterlimit="10" x1="253.7" y1="303.3" x2="253.7" y2="252.3"/>
		<line fill="none" stroke="#000000" stroke-width="3" stroke-miterlimit="10" x1="253.7" y1="203.2" x2="253.7" y2="152.2"/>
		<g>
			<g>
				<polygon fill="none" stroke="#000000" stroke-width="3" stroke-miterlimit="10" points="556.7,52.4 506.4,77.4 506.4,128.1 
					556.7,152.5 607.4,127.8 607.4,77.4 				"/>
			</g>
		</g>
		<g>
			<g>
				<polygon fill="none" stroke="#000000" stroke-width="3" stroke-miterlimit="10" points="556.7,1.7 506.4,26.8 506.4,77.5 
					556.7,101.8 607.4,77.1 607.4,26.8 				"/>
			</g>
		</g>
		<line fill="none" stroke="#000000" stroke-width="3" stroke-miterlimit="10" x1="556.7" y1="152.8" x2="556.7" y2="101.8"/>
		<line fill="none" stroke="#000000" stroke-width="3" stroke-miterlimit="10" x1="556.7" y1="52.7" x2="556.7" y2="1.7"/>
		<g>
			<g>
				<polygon fill="none" stroke="#000000" stroke-width="3" stroke-miterlimit="10" points="455.7,52.4 405.4,77.4 405.4,128.1 
					455.7,152.5 506.4,127.8 506.4,77.4 				"/>
			</g>
		</g>
		<g>
			<g>
				<polygon fill="none" stroke="#000000" stroke-width="3" stroke-miterlimit="10" points="455.7,1.7 405.4,26.8 405.4,77.5 
					455.7,101.8 506.4,77.1 506.4,26.8 				"/>
			</g>
		</g>
		<line fill="none" stroke="#000000" stroke-width="3" stroke-miterlimit="10" x1="455.7" y1="152.8" x2="455.7" y2="101.8"/>
		<line fill="none" stroke="#000000" stroke-width="3" stroke-miterlimit="10" x1="455.7" y1="52.7" x2="455.7" y2="1.7"/>
		<g>
			<g>
				<polygon fill="none" stroke="#000000" stroke-width="3" stroke-miterlimit="10" points="758.7,52.4 708.4,77.4 708.4,128.1 
					758.7,152.5 809.4,127.8 809.4,77.4 				"/>
			</g>
		</g>
		<g>
			<g>
				<polygon fill="none" stroke="#000000" stroke-width="3" stroke-miterlimit="10" points="758.7,1.7 708.4,26.8 708.4,77.5 
					758.7,101.8 809.4,77.1 809.4,26.8 				"/>
			</g>
		</g>
		<line fill="none" stroke="#000000" stroke-width="3" stroke-miterlimit="10" x1="758.7" y1="152.8" x2="758.7" y2="101.8"/>
		<line fill="none" stroke="#000000" stroke-width="3" stroke-miterlimit="10" x1="758.7" y1="52.7" x2="758.7" y2="1.7"/>
		<g>
			<g>
				<polygon fill="none" stroke="#000000" stroke-width="3" stroke-miterlimit="10" points="657.7,52.4 607.4,77.4 607.4,128.1 
					657.7,152.5 708.4,127.8 708.4,77.4 				"/>
			</g>
		</g>
		<g>
			<g>
				<polygon fill="none" stroke="#000000" stroke-width="3" stroke-miterlimit="10" points="657.7,1.7 607.4,26.8 607.4,77.5 
					657.7,101.8 708.4,77.1 708.4,26.8 				"/>
			</g>
		</g>
		<line fill="none" stroke="#000000" stroke-width="3" stroke-miterlimit="10" x1="657.7" y1="152.8" x2="657.7" y2="101.8"/>
		<line fill="none" stroke="#000000" stroke-width="3" stroke-miterlimit="10" x1="657.7" y1="52.7" x2="657.7" y2="1.7"/>
		<g>
			<g>
				<polygon fill="none" stroke="#000000" stroke-width="3" stroke-miterlimit="10" points="556.7,202.9 506.4,227.9 506.4,278.7 
					556.7,303 607.4,278.3 607.4,227.9 				"/>
			</g>
		</g>
		<g>
			<g>
				<polygon fill="none" stroke="#000000" stroke-width="3" stroke-miterlimit="10" points="556.7,152.2 506.4,177.3 506.4,228 
					556.7,252.3 607.4,227.6 607.4,177.3 				"/>
			</g>
		</g>
		<line fill="none" stroke="#000000" stroke-width="3" stroke-miterlimit="10" x1="556.7" y1="303.3" x2="556.7" y2="252.3"/>
		<line fill="none" stroke="#000000" stroke-width="3" stroke-miterlimit="10" x1="556.7" y1="203.2" x2="556.7" y2="152.2"/>
		<g>
			<g>
				<polygon fill="none" stroke="#000000" stroke-width="3" stroke-miterlimit="10" points="455.7,202.9 405.4,227.9 405.4,278.7 
					455.7,303 506.4,278.3 506.4,227.9 				"/>
			</g>
		</g>
		<g>
			<g>
				<polygon fill="none" stroke="#000000" stroke-width="3" stroke-miterlimit="10" points="455.7,152.2 405.4,177.3 405.4,228 
					455.7,252.3 506.4,227.6 506.4,177.3 				"/>
			</g>
		</g>
		<line fill="none" stroke="#000000" stroke-width="3" stroke-miterlimit="10" x1="455.7" y1="303.3" x2="455.7" y2="252.3"/>
		<line fill="none" stroke="#000000" stroke-width="3" stroke-miterlimit="10" x1="455.7" y1="203.2" x2="455.7" y2="152.2"/>
		<g>
			<g>
				<polygon fill="none" stroke="#000000" stroke-width="3" stroke-miterlimit="10" points="758.7,202.9 708.4,227.9 708.4,278.7 
					758.7,303 809.4,278.3 809.4,227.9 				"/>
			</g>
		</g>
		<g>
			<g>
				<polygon fill="none" stroke="#000000" stroke-width="3" stroke-miterlimit="10" points="758.7,152.2 708.4,177.3 708.4,228 
					758.7,252.3 809.4,227.6 809.4,177.3 				"/>
			</g>
		</g>
		<line fill="none" stroke="#000000" stroke-width="3" stroke-miterlimit="10" x1="758.7" y1="303.3" x2="758.7" y2="252.3"/>
		<line fill="none" stroke="#000000" stroke-width="3" stroke-miterlimit="10" x1="758.7" y1="203.2" x2="758.7" y2="152.2"/>
		<g>
			<g>
				<polygon fill="none" stroke="#000000" stroke-width="3" stroke-miterlimit="10" points="657.7,202.9 607.4,227.9 607.4,278.7 
					657.7,303 708.4,278.3 708.4,227.9 				"/>
			</g>
		</g>
		<g>
			<g>
				<polygon fill="none" stroke="#000000" stroke-width="3" stroke-miterlimit="10" points="657.7,152.2 607.4,177.3 607.4,228 
					657.7,252.3 708.4,227.6 708.4,177.3 				"/>
			</g>
		</g>
		<line fill="none" stroke="#000000" stroke-width="3" stroke-miterlimit="10" x1="657.7" y1="303.3" x2="657.7" y2="252.3"/>
		<line fill="none" stroke="#000000" stroke-width="3" stroke-miterlimit="10" x1="657.7" y1="203.2" x2="657.7" y2="152.2"/>
	</g>
</g>
<g id="Single_Piece">
</g>
</svg>
