<?xml version="1.0" encoding="utf-8"?>
<!-- Generator: Adobe Illustrator 18.1.1, SVG Export Plug-In . SVG Version: 6.00 Build 0)  -->
<svg version="1.1" id="Layer_1" xmlns="http://www.w3.org/2000/svg" xmlns:xlink="http://www.w3.org/1999/xlink" x="0px" y="0px"
	 viewBox="0 0 2780.8 1159.3" enable-background="new 0 0 2780.8 1159.3" xml:space="preserve">
<g>
	<path fill="#489BB7" d="M638.2,423h160.7c24.5,0,46.7,3,66.7,9.1c20,6.1,37.3,14.9,51.9,26.4c14.6,11.6,25.8,25.6,33.9,42.2
		c8,16.6,12,35.6,12,57v1.3c0,23.1-4.7,43.5-13.9,61.1c-9.3,17.6-21.8,32.3-37.6,44.1c-15.8,11.8-34.2,20.6-55,26.5
		c-20.9,5.9-42.9,8.8-66.1,8.8H671.1v164.4h-32.9V423z M792.5,669.9c20.7,0,39.4-2.5,56.3-7.6c16.9-5.1,31.3-12.3,43.3-21.9
		c12-9.5,21.4-21,28.1-34.5c6.7-13.5,10.1-28.5,10.1-45v-1.3c0-17.7-3.3-33.3-9.8-46.6c-6.5-13.3-15.7-24.4-27.5-33.3
		c-11.8-8.9-25.9-15.6-42.4-20.3c-16.4-4.6-34.6-7-54.4-7H671.1v217.3H792.5z"/>
	<path fill="#489BB7" d="M1093,966.6c-12.2,0-23.2-1.2-32.9-3.5c-9.7-2.4-20-5.9-31-10.6l10.8-27.4c8.4,4.2,16.7,7.2,24.7,9.1
		c8,1.9,18.1,2.8,30.4,2.8c8.4,0,16.2-1.3,23.4-3.8c7.2-2.5,13.9-6.8,20.2-12.9c6.3-6.1,12.4-13.9,18.3-23.6
		c5.9-9.6,11.8-21.4,17.7-35.2l-155-318.8h36l134.1,287.2l116.4-287.2h34.2l-139.8,332.5c-14.3,33.6-30.1,57.2-47.1,70.9
		C1136.3,959.7,1116.2,966.6,1093,966.6z"/>
</g>
<g>
	<path fill="#EC9041" d="M1424.3,434.6h147.4c34.6,0,66.3,5.6,95.2,16.7c28.9,11.1,53.8,26.6,74.6,46.3c20.9,19.7,37,42.9,48.4,69.6
		c11.4,26.7,17.1,55.5,17.1,86.6v1.3c0,31.1-5.7,60-17.1,86.9c-11.4,26.9-27.5,50.2-48.4,69.9c-20.9,19.7-45.8,35.3-74.6,46.6
		c-28.9,11.3-60.6,17-95.2,17h-147.4V434.6z M1571.7,845.8c30.8,0,58.6-4.9,83.5-14.8c24.9-9.9,46-23.4,63.3-40.4
		c17.3-17.1,30.7-37.1,40.2-60c9.5-23,14.2-47.7,14.2-74.3V655c0-26.1-4.7-50.8-14.2-73.9c-9.5-23.2-22.9-43.4-40.2-60.7
		c-17.3-17.3-38.4-31-63.3-41.1c-24.9-10.1-52.7-15.2-83.5-15.2h-114.5v381.7H1571.7z"/>
	<path fill="#EC9041" d="M2010,883c-15.2,0-30.2-2.1-44.9-6.3c-14.8-4.2-28.1-10.5-39.9-18.9c-11.8-8.4-21.4-18.9-28.8-31.5
		c-7.4-12.6-11.1-27.3-11.1-44.1V781c0-16.8,3.5-31.7,10.4-44.7c7-13,16.5-23.9,28.8-32.8c12.2-8.8,27-15.5,44.3-20.2
		c17.3-4.6,36.5-6.9,57.6-6.9c22.8,0,42.4,1.3,58.8,3.8c16.4,2.5,32.5,5.9,48.1,10.1v-13.8c0-32.6-9.4-57-28.2-73.3
		c-18.8-16.3-44.8-24.4-78.1-24.4c-19.8,0-38,2.4-54.4,7.2c-16.4,4.8-32.1,11-46.8,18.6l-11.4-27.1c17.7-8.6,35.6-15.4,53.8-20.6
		c18.1-5.1,38.4-7.7,60.7-7.7c44.3,0,78.2,11.8,101.8,35.3c21.9,21.8,32.9,52.1,32.9,90.7v200.3h-30.4v-53.5
		c-5.5,7.6-12.1,15-19.9,22.4c-7.8,7.4-16.8,13.9-26.9,19.5s-21.6,10.3-34.5,13.9C2039.2,881.2,2025.2,883,2010,883z M2012,853.4
		c16.5,0,32-2.4,46.8-7.2c14.7-4.8,27.7-11.5,38.9-20.1c11.2-8.6,20-18.9,26.6-31c6.5-12.1,9.8-25.5,9.8-40.1v-36.4
		c-13.5-3.3-29.3-6.6-47.4-9.7c-18.1-3.1-38.8-4.7-62-4.7c-34.2,0-60.4,6.8-78.8,20.4c-18.3,13.6-27.5,31.7-27.5,54.2v1.3
		c0,11.7,2.5,22.1,7.6,31c5.1,9,11.9,16.6,20.5,22.9c8.6,6.3,18.7,11.1,30,14.4C1987.9,851.7,1999.7,853.4,2012,853.4z"/>
	<path fill="#EC9041" d="M2382.6,881.1c-12.6,0-24.5-1.7-35.4-5c-11-3.4-20.6-8.7-28.8-16.1c-8.2-7.3-14.7-16.6-19.3-27.7
		c-4.7-11.1-7-24.2-7-39.4V582.6h-46.8v-28.3h46.8V451.6h31v102.7h113.2v28.3h-113.2v206.7c0,23.1,6,39.2,18,48.4
		c12,9.2,27.5,13.8,46.5,13.8c8,0,15.6-0.8,22.8-2.4c7.2-1.6,15.4-4.4,24.7-8.3v29c-8.4,3.8-16.8,6.6-25,8.5
		C2401.9,880.1,2392.8,881.1,2382.6,881.1z"/>
	<path fill="#EC9041" d="M2626.2,883c-15.2,0-30.2-2.1-44.9-6.3c-14.8-4.2-28.1-10.5-39.8-18.9c-11.8-8.4-21.4-18.9-28.8-31.5
		c-7.4-12.6-11.1-27.3-11.1-44.1V781c0-16.8,3.5-31.7,10.4-44.7c7-13,16.6-23.9,28.8-32.8c12.2-8.8,27-15.5,44.3-20.2
		c17.3-4.6,36.5-6.9,57.6-6.9c22.8,0,42.4,1.3,58.8,3.8c16.4,2.5,32.5,5.9,48.1,10.1v-13.8c0-32.6-9.4-57-28.1-73.3
		c-18.8-16.3-44.8-24.4-78.1-24.4c-19.8,0-38,2.4-54.4,7.2c-16.5,4.8-32,11-46.8,18.6l-11.4-27.1c17.7-8.6,35.6-15.4,53.8-20.6
		c18.1-5.1,38.4-7.7,60.7-7.7c44.3,0,78.2,11.8,101.9,35.3c21.9,21.8,32.9,52.1,32.9,90.7v200.3h-30.4v-53.5
		c-5.5,7.6-12.1,15-19.9,22.4c-7.8,7.4-16.8,13.9-26.9,19.5c-10.1,5.7-21.6,10.3-34.5,13.9C2655.4,881.2,2641.4,883,2626.2,883z
		 M2628.1,853.4c16.5,0,32-2.4,46.8-7.2c14.8-4.8,27.7-11.5,38.9-20.1c11.2-8.6,20-18.9,26.6-31c6.5-12.1,9.8-25.5,9.8-40.1v-36.4
		c-13.5-3.3-29.3-6.6-47.5-9.7c-18.1-3.1-38.8-4.7-62-4.7c-34.2,0-60.4,6.8-78.8,20.4c-18.3,13.6-27.5,31.7-27.5,54.2v1.3
		c0,11.7,2.5,22.1,7.6,31c5.1,9,11.9,16.6,20.6,22.9c8.6,6.3,18.7,11.1,30.1,14.4C2604,851.7,2615.8,853.4,2628.1,853.4z"/>
</g>
<g>
	<g>
		<g>
			<defs>
				<path id="SVGID_1_" d="M0,450.5l254.2,132.8v271.5 M0,450.5v271.5l254.2,132.8"/>
			</defs>
			<use xlink:href="#SVGID_1_"  overflow="visible" fill="#489BB7"/>
			<clipPath id="SVGID_2_">
				<use xlink:href="#SVGID_1_"  overflow="visible"/>
			</clipPath>
		</g>
	</g>
	<g>
		<g>
			<defs>
				<path id="SVGID_3_" d="M267.2,558.7L14.8,425.9L269,295.4l254.2,131.2L267.2,558.7L267.2,558.7L267.2,558.7z"/>
			</defs>
			<use xlink:href="#SVGID_3_"  overflow="visible" fill="#EC9041"/>
			<clipPath id="SVGID_4_">
				<use xlink:href="#SVGID_3_"  overflow="visible"/>
			</clipPath>
		</g>
	</g>
	<g>
		<g>
			<defs>
				<polyline id="SVGID_5_" points="283.9,583.4 538,450.5 538,722.1 283.9,855 				"/>
			</defs>
			<use xlink:href="#SVGID_5_"  overflow="visible" fill-rule="evenodd" clip-rule="evenodd" fill="#667B83"/>
			<clipPath id="SVGID_6_">
				<use xlink:href="#SVGID_5_"  overflow="visible"/>
			</clipPath>
		</g>
	</g>
	<g>
		<g>
			<defs>
				<path id="SVGID_7_" d="M0,755l254.2,132.8v271.5 M0,755v271.5l254.2,132.8"/>
			</defs>
			<use xlink:href="#SVGID_7_"  overflow="visible" fill="#489BB7"/>
			<clipPath id="SVGID_8_">
				<use xlink:href="#SVGID_7_"  overflow="visible"/>
			</clipPath>
		</g>
	</g>
	<g>
		<defs>
			<path id="SVGID_9_" d="M283.1,0l254.2,132.8v271.5 M283.1,0v271.5l254.2,132.8"/>
		</defs>
		<use xlink:href="#SVGID_9_"  overflow="visible" fill="#EC9041"/>
		<clipPath id="SVGID_10_">
			<use xlink:href="#SVGID_9_"  overflow="visible"/>
		</clipPath>
	</g>
</g>
</svg>
