<?xml version="1.0" encoding="utf-8"?>
<!-- Generator: Adobe Illustrator 18.1.1, SVG Export Plug-In . SVG Version: 6.00 Build 0)  -->
<svg version="1.1" id="Logotype" xmlns="http://www.w3.org/2000/svg" xmlns:xlink="http://www.w3.org/1999/xlink" x="0px" y="0px"
	 viewBox="0 0 503 185" style="enable-background:new 0 0 503 185;" xml:space="preserve">
<style type="text/css">
	.st0{fill:#77787B;}
	.st1{fill:#F26522;}
	.st2{fill:#8DC63F;}
	.st3{fill:#00AEEF;}
	.st4{fill:#FFC20E;}
</style>
<g>
	<path class="st0" d="M193.79,99.15l-2.36,6.61h-0.13c-0.42-1.55-1.13-3.74-2.24-6.54l-12.63-31.7h-12.35v50.39h8.15V86.94
		c0-1.91-0.04-4.22-0.12-6.87c-0.04-1.34-0.19-2.41-0.23-3.23h0.18c0.41,1.9,0.84,3.34,1.16,4.31l15.15,36.76h5.7l15.04-37.09
		c0.34-0.85,0.7-2.5,1.04-3.98h0.18c-0.2,3.67-0.36,7.03-0.39,9.05v32.02h8.69V67.52h-11.86L193.79,99.15z"/>
	<rect x="226.79" y="81.8" class="st0" width="8.5" height="36.11"/>
	<path class="st0" d="M231.13,66.46c-1.4,0-2.62,0.48-3.62,1.42c-1.01,0.95-1.52,2.14-1.52,3.54c0,1.38,0.5,2.55,1.5,3.47
		c0.99,0.92,2.21,1.38,3.64,1.38c1.42,0,2.65-0.47,3.65-1.38c1.01-0.92,1.52-2.09,1.52-3.47c0-1.36-0.5-2.54-1.48-3.5
		C233.84,66.95,232.6,66.46,231.13,66.46z"/>
	<path class="st0" d="M265.36,81.44c-1.63-0.34-3.23-0.51-4.75-0.51c-3.9,0-7.37,0.83-10.33,2.48c-2.96,1.65-5.25,4.01-6.81,7.01
		c-1.55,2.99-2.34,6.48-2.34,10.38c0,3.41,0.77,6.54,2.27,9.3c1.51,2.77,3.65,4.93,6.36,6.43c2.7,1.5,5.83,2.26,9.29,2.26
		c4.04,0,7.49-0.81,10.25-2.4l0.11-0.07v-7.78l-0.36,0.26c-1.25,0.91-2.65,1.64-4.16,2.16c-1.5,0.52-2.87,0.79-4.07,0.79
		c-3.33,0-6.01-1.04-7.95-3.1c-1.95-2.06-2.93-4.95-2.93-8.59c0-3.66,1.03-6.63,3.06-8.82c2.02-2.18,4.7-3.29,7.97-3.29
		c2.79,0,5.51,0.95,8.09,2.81l0.36,0.26v-8.2l-0.11-0.06C268.32,82.23,267,81.78,265.36,81.44z"/>
	<path class="st0" d="M293.35,81.18c-2.13,0-4.04,0.69-5.68,2.04c-1.44,1.19-2.47,2.81-3.27,4.84h-0.09V81.8h-8.49v36.11h8.49V99.44
		c0-3.14,0.71-5.72,2.12-7.67c1.39-1.93,3.24-2.9,5.49-2.9c0.77,0,1.62,0.13,2.55,0.38c0.92,0.25,1.59,0.52,1.98,0.8l0.36,0.26
		v-8.56l-0.14-0.06C295.89,81.35,294.77,81.18,293.35,81.18z"/>
	<path class="st0" d="M316.42,80.93c-5.96,0-10.69,1.75-14.06,5.19c-3.37,3.44-5.08,8.2-5.08,14.16c0,5.65,1.67,10.2,4.96,13.51
		c3.29,3.31,7.77,4.99,13.31,4.99c5.77,0,10.41-1.77,13.78-5.26c3.37-3.49,5.08-8.2,5.08-14.02c0-5.75-1.6-10.33-4.76-13.62
		C326.48,82.6,322.03,80.93,316.42,80.93z M323.18,108.74c-1.6,2-4,3.02-7.14,3.02c-3.12,0-5.58-1.03-7.32-3.07
		c-1.74-2.05-2.63-4.97-2.63-8.68c0-3.83,0.88-6.83,2.63-8.91c1.74-2.07,4.17-3.12,7.25-3.12c2.98,0,5.36,1,7.06,2.99
		c1.71,1.99,2.58,4.96,2.58,8.84C325.6,103.71,324.79,106.72,323.18,108.74z"/>
	<path class="st0" d="M353.25,96.73c-2.68-1.08-4.39-1.97-5.1-2.65c-0.68-0.66-1.03-1.6-1.03-2.78c0-1.05,0.43-1.89,1.31-2.57
		c0.88-0.69,2.11-1.03,3.66-1.03c1.43,0,2.9,0.23,4.36,0.67c1.46,0.44,2.74,1.04,3.8,1.76l0.35,0.24v-7.85l-0.14-0.06
		c-0.98-0.42-2.28-0.78-3.86-1.08c-1.57-0.29-3-0.44-4.24-0.44c-4.05,0-7.4,1.04-9.96,3.08c-2.57,2.05-3.88,4.75-3.88,8.01
		c0,1.7,0.28,3.2,0.84,4.48c0.56,1.28,1.42,2.41,2.57,3.36c1.14,0.94,2.9,1.92,5.23,2.92c1.96,0.81,3.42,1.49,4.35,2.03
		c0.91,0.53,1.55,1.06,1.91,1.57c0.35,0.5,0.53,1.19,0.53,2.05c0,2.43-1.82,3.61-5.56,3.61c-1.39,0-2.97-0.29-4.7-0.86
		c-1.73-0.57-3.35-1.39-4.81-2.44l-0.36-0.26v8.28l0.13,0.06c1.22,0.56,2.75,1.04,4.56,1.41c1.81,0.37,3.45,0.56,4.87,0.56
		c4.4,0,7.94-1.04,10.52-3.1c2.6-2.07,3.92-4.83,3.92-8.2c0-2.43-0.71-4.52-2.11-6.2C359.02,99.61,356.61,98.08,353.25,96.73z"/>
	<path class="st0" d="M385.36,80.93c-5.96,0-10.68,1.75-14.06,5.19c-3.37,3.44-5.08,8.2-5.08,14.16c0,5.65,1.67,10.2,4.96,13.51
		c3.29,3.31,7.77,4.99,13.31,4.99c5.77,0,10.41-1.77,13.78-5.26c3.37-3.49,5.08-8.2,5.08-14.02c0-5.75-1.6-10.33-4.77-13.62
		C395.41,82.6,390.96,80.93,385.36,80.93z M392.11,108.74c-1.6,2-4,3.02-7.14,3.02c-3.12,0-5.58-1.03-7.32-3.07
		c-1.74-2.05-2.63-4.97-2.63-8.68c0-3.83,0.88-6.83,2.63-8.91c1.73-2.07,4.17-3.12,7.25-3.12c2.98,0,5.36,1,7.06,2.99
		c1.71,1.99,2.58,4.96,2.58,8.84C394.53,103.71,393.72,106.72,392.11,108.74z"/>
	<path class="st0" d="M448.64,88.73V81.8h-8.6V71.03l-0.29,0.09l-8.08,2.47l-0.16,0.05v8.16h-12.75v-4.55
		c0-2.12,0.47-3.74,1.41-4.82c0.93-1.07,2.25-1.61,3.94-1.61c1.21,0,2.47,0.29,3.74,0.85l0.32,0.14v-7.3l-0.15-0.05
		c-1.18-0.42-2.79-0.64-4.78-0.64c-2.51,0-4.79,0.55-6.78,1.63c-1.99,1.09-3.56,2.63-4.65,4.6c-1.09,1.96-1.65,4.23-1.65,6.74v5
		h-5.99v6.93h5.99v29.18h8.6V88.73h12.75v18.55c0,7.64,3.6,11.51,10.71,11.51c1.17,0,2.4-0.14,3.65-0.41
		c1.28-0.28,2.15-0.55,2.66-0.84l0.11-0.06v-7l-0.35,0.23c-0.47,0.31-1.05,0.57-1.73,0.75c-0.68,0.19-1.26,0.29-1.7,0.29
		c-1.67,0-2.9-0.45-3.66-1.33c-0.77-0.89-1.16-2.45-1.16-4.64V88.73H448.64z"/>
</g>
<rect x="54.77" y="50.69" class="st1" width="39.96" height="39.96"/>
<rect x="98.89" y="50.69" class="st2" width="39.96" height="39.96"/>
<rect x="54.77" y="94.83" class="st3" width="39.96" height="39.96"/>
<rect x="98.89" y="94.83" class="st4" width="39.96" height="39.96"/>
<g>
</g>
<g>
</g>
</svg>
