<?xml version="1.0" encoding="utf-8"?>
<!-- Generator: Adobe Illustrator 18.1.1, SVG Export Plug-In . SVG Version: 6.00 Build 0)  -->
<svg version="1.1" id="Layer_1" xmlns="http://www.w3.org/2000/svg" xmlns:xlink="http://www.w3.org/1999/xlink" x="0px" y="0px"
	 viewBox="0 0 2780.8 1159.31" style="enable-background:new 0 0 2780.8 1159.31;" xml:space="preserve">
<style type="text/css">
	.st0{fill:#489BB7;}
	.st1{fill:none;}
	.st2{fill:#EC9041;}
</style>
<g>
	<path class="st0" d="M638.18,423.03h160.68c24.45,0,46.7,3.05,66.73,9.13c20.03,6.09,37.33,14.91,51.87,26.45
		c14.56,11.55,25.83,25.62,33.85,42.2c7.99,16.59,12.02,35.58,12.02,57v1.26c0,23.1-4.65,43.45-13.93,61.1
		c-9.28,17.63-21.82,32.33-37.64,44.08c-15.8,11.76-34.16,20.58-55.03,26.46c-20.88,5.88-42.92,8.81-66.11,8.81H671.07V863.9h-32.89
		V423.03z M792.53,669.92c20.66,0,39.43-2.53,56.3-7.6c16.86-5.06,31.31-12.35,43.33-21.85c12.01-9.51,21.39-21.01,28.14-34.53
		c6.74-13.51,10.13-28.5,10.13-44.97v-1.27c0-17.74-3.28-33.25-9.81-46.56c-6.53-13.3-15.7-24.38-27.51-33.26
		c-11.81-8.87-25.93-15.63-42.38-20.27c-16.45-4.64-34.59-6.97-54.4-6.97H671.07v217.29H792.53z"/>
	<path class="st0" d="M1093.01,966.55c-12.23,0-23.21-1.18-32.9-3.53c-9.71-2.37-20.03-5.91-30.99-10.63l10.75-27.41
		c8.43,4.19,16.66,7.25,24.67,9.13c8.01,1.89,18.13,2.83,30.36,2.83c8.44,0,16.24-1.26,23.41-3.77c7.16-2.54,13.91-6.82,20.24-12.9
		c6.32-6.08,12.44-13.94,18.34-23.58c5.91-9.65,11.81-21.39,17.72-35.22l-154.98-318.81h36.05l134.11,287.2l116.4-287.2h34.15
		l-139.8,332.55c-14.35,33.58-30.05,57.2-47.13,70.85C1136.34,959.73,1116.2,966.55,1093.01,966.55z"/>
</g>
<g id="Layer_2">
	<g>
		<rect x="1424.28" y="964.55" class="st1" width="1355.52" height="163.89"/>
		<path d="M1787.14,1092.57c-11.07,0-20.62-2.05-28.63-6.14c-8.02-4.09-14.56-9.71-19.64-16.87l6.92-5.02
			c5.19,6.69,11.1,11.71,17.73,15.05c6.63,3.35,14.79,5.02,24.48,5.02c4.96,0,9.57-0.66,13.84-1.99c4.27-1.33,7.96-3.18,11.07-5.54
			c3.11-2.37,5.56-5.17,7.35-8.4c1.79-3.23,2.68-6.76,2.68-10.57c0-2.65-0.46-5.05-1.38-7.19c-0.92-2.14-2.42-4.16-4.5-6.06
			c-2.08-1.91-4.82-3.75-8.22-5.54c-3.4-1.79-7.53-3.67-12.37-5.63c-6.23-2.43-11.53-4.76-15.92-7.02
			c-4.38-2.25-7.96-4.62-10.73-7.1c-2.77-2.48-4.79-5.2-6.05-8.14c-1.27-2.95-1.9-6.27-1.9-9.96c0-4.62,1.04-8.95,3.11-12.99
			c2.08-4.04,5.02-7.57,8.82-10.57c3.81-3,8.36-5.4,13.67-7.19c5.3-1.79,11.24-2.69,17.82-2.69c9.11,0,17.3,1.7,24.57,5.1
			c7.27,3.4,13.09,7.82,17.47,13.23l-6.92,5.54c-4.38-5.19-9.57-9.14-15.57-11.85c-6-2.71-12.8-4.07-20.41-4.07
			c-5.19,0-9.86,0.7-14.01,2.08c-4.15,1.39-7.64,3.21-10.47,5.46c-2.83,2.25-5.02,4.85-6.57,7.8c-1.56,2.95-2.34,6.04-2.34,9.27
			c0,2.77,0.58,5.29,1.73,7.54c1.15,2.25,2.91,4.33,5.28,6.24c2.36,1.91,5.36,3.76,9,5.55c3.63,1.79,7.93,3.61,12.89,5.45
			c5.65,2.08,10.49,4.22,14.53,6.41c4.04,2.19,7.35,4.56,9.95,7.1c2.6,2.54,4.53,5.31,5.8,8.32c1.27,3,1.9,6.35,1.9,10.05
			c0,4.97-1.12,9.59-3.37,13.86c-2.25,4.27-5.36,8-9.34,11.17c-3.98,3.18-8.74,5.69-14.27,7.54
			C1799.59,1091.64,1793.59,1092.57,1787.14,1092.57z"/>
		<path d="M1865.33,1049.66c-0.12,0.92-0.2,1.9-0.26,2.94c-0.06,1.04-0.09,2.02-0.09,2.94c0,4.5,0.72,8.54,2.16,12.11
			c1.44,3.58,3.43,6.66,5.97,9.26c2.54,2.6,5.59,4.58,9.17,5.97c3.57,1.38,7.55,2.08,11.94,2.08c6.69,0,12.31-1.09,16.87-3.29
			c4.55-2.19,8.97-5.02,13.23-8.48l5.02,6.05c-4.62,3.81-9.63,7.04-15.05,9.69c-5.42,2.65-12.11,3.98-20.07,3.98
			c-5.65,0-10.81-0.9-15.48-2.68c-4.67-1.79-8.71-4.33-12.11-7.61c-3.4-3.29-6.05-7.21-7.96-11.76c-1.9-4.55-2.86-9.54-2.86-14.96
			c0-6.92,1.3-13.69,3.89-20.33c2.6-6.63,6.2-12.54,10.81-17.73c4.61-5.19,10.03-9.37,16.26-12.54c6.23-3.17,12.92-4.76,20.07-4.76
			c5.54,0,10.38,0.89,14.53,2.68c4.15,1.79,7.64,4.24,10.47,7.35c2.82,3.11,4.93,6.72,6.31,10.81c1.38,4.1,2.08,8.39,2.08,12.89
			c0,5.65-0.81,10.79-2.42,15.4H1865.33z M1930.9,1042.05c0.23-0.8,0.4-1.81,0.52-3.01c0.11-1.21,0.17-2.61,0.17-4.22
			c0-3.56-0.49-6.91-1.47-10.07c-0.98-3.15-2.51-5.94-4.58-8.35c-2.08-2.41-4.67-4.33-7.79-5.77c-3.11-1.43-6.81-2.15-11.07-2.15
			c-4.96,0-9.57,0.89-13.84,2.67c-4.27,1.78-8.13,4.22-11.59,7.32c-3.46,3.1-6.4,6.68-8.82,10.76c-2.42,4.07-4.27,8.35-5.54,12.82
			H1930.9z"/>
		<path d="M1982.28,1092.91c-3.69,0-7.27-0.52-10.73-1.56c-3.46-1.04-6.55-2.59-9.25-4.67c-2.71-2.08-4.87-4.64-6.49-7.7
			c-1.62-3.05-2.42-6.66-2.42-10.81c0-4.84,0.98-9.26,2.94-13.23c1.96-3.98,4.7-7.35,8.22-10.12c3.52-2.77,7.73-4.9,12.63-6.4
			c4.9-1.5,10.23-2.25,16-2.25c6.34,0,12.48,0.52,18.42,1.56c5.94,1.04,11.1,2.19,15.48,3.46l0.69-2.42
			c0.35-1.27,0.63-2.74,0.87-4.41c0.23-1.67,0.35-3.14,0.35-4.41c0-6.69-2.28-11.82-6.83-15.4c-4.56-3.57-11.16-5.36-19.81-5.36
			c-4.84,0-9.26,0.4-13.24,1.21c-3.98,0.81-8.1,1.96-12.37,3.46l-1.56-7.61c4.38-1.61,8.74-2.86,13.06-3.72
			c4.32-0.87,9.25-1.3,14.79-1.3c10.84,0,19.26,2.45,25.26,7.35c6,4.9,9,11.62,9,20.16c0,1.62-0.15,3.46-0.43,5.54
			c-0.29,2.08-0.72,4.1-1.3,6.05l-13.49,50.52l-8.3-0.05l3.98-15.18c-4.27,5.08-9.31,9.23-15.14,12.46
			C1996.78,1091.3,1990,1092.91,1982.28,1092.91z M1984.01,1084.96c4.15,0,8.3-0.69,12.46-2.07c4.15-1.38,8.04-3.36,11.68-5.94
			s6.77-5.66,9.43-9.21c2.65-3.56,4.61-7.58,5.88-12.06l2.08-7.75c-4.5-1.15-9.54-2.12-15.14-2.93c-5.6-0.8-11.68-1.21-18.25-1.21
			c-4.38,0-8.39,0.58-12.02,1.72c-3.63,1.15-6.75,2.76-9.34,4.82c-2.59,2.07-4.61,4.51-6.05,7.32c-1.44,2.81-2.16,5.94-2.16,9.39
			c0,5.51,1.93,9.88,5.79,13.09C1972.21,1083.35,1977.43,1084.96,1984.01,1084.96z"/>
		<path d="M2085.21,1092.4c-5.88,0-10.87-1.38-14.96-4.14c-4.1-2.76-6.14-7.19-6.14-13.29c0-1.38,0.11-2.85,0.35-4.4
			c0.23-1.55,0.46-2.91,0.69-4.06l15.05-55.93h-12.8l2.08-7.96h12.8l7.61-28.2h8.48l-7.61,28.2h30.45l-2.08,7.96h-30.45
			l-15.05,55.96c-0.23,1.15-0.43,2.41-0.61,3.79c-0.17,1.38-0.26,2.58-0.26,3.61c0,3.68,1.3,6.34,3.89,8.01
			c2.6,1.66,6.08,2.49,10.47,2.49c3.69,0,7.96-0.87,12.8-2.59l-2.25,8.3c-2.31,0.92-4.38,1.53-6.23,1.82
			C2089.59,1092.25,2087.52,1092.4,2085.21,1092.4z"/>
		<path d="M2155.1,1092.4c-5.88,0-10.87-1.38-14.96-4.14c-4.1-2.76-6.14-7.19-6.14-13.29c0-1.38,0.11-2.85,0.35-4.4
			c0.23-1.55,0.46-2.91,0.69-4.06l15.05-55.93h-12.8l2.08-7.96h12.8l7.61-28.2h8.48l-7.61,28.2h30.45l-2.08,7.96h-30.45
			l-15.05,55.96c-0.23,1.15-0.43,2.41-0.61,3.79c-0.17,1.38-0.26,2.58-0.26,3.61c0,3.68,1.3,6.34,3.89,8.01
			c2.6,1.66,6.08,2.49,10.47,2.49c3.69,0,7.96-0.87,12.8-2.59l-2.25,8.3c-2.31,0.92-4.38,1.53-6.23,1.82
			C2159.49,1092.25,2157.41,1092.4,2155.1,1092.4z"/>
		<path d="M2228.8,964.55h8.48l-33.91,126.29h-8.48L2228.8,964.55z"/>
		<path d="M2252.16,1049.66c-0.12,0.92-0.2,1.9-0.26,2.94c-0.06,1.04-0.09,2.02-0.09,2.94c0,4.5,0.72,8.54,2.16,12.11
			c1.44,3.58,3.43,6.66,5.97,9.26c2.54,2.6,5.59,4.58,9.17,5.97c3.57,1.38,7.55,2.08,11.94,2.08c6.69,0,12.31-1.09,16.87-3.29
			c4.55-2.19,8.97-5.02,13.23-8.48l5.02,6.05c-4.61,3.81-9.63,7.04-15.05,9.69c-5.42,2.65-12.11,3.98-20.07,3.98
			c-5.65,0-10.81-0.9-15.48-2.68s-8.71-4.33-12.11-7.61c-3.4-3.29-6.06-7.21-7.96-11.76c-1.9-4.55-2.85-9.54-2.85-14.96
			c0-6.92,1.3-13.69,3.89-20.33c2.59-6.63,6.2-12.54,10.81-17.73c4.61-5.19,10.03-9.37,16.26-12.54c6.23-3.17,12.92-4.76,20.07-4.76
			c5.54,0,10.38,0.89,14.53,2.68c4.15,1.79,7.64,4.24,10.47,7.35c2.82,3.11,4.93,6.72,6.31,10.81c1.38,4.1,2.08,8.39,2.08,12.89
			c0,5.65-0.81,10.79-2.42,15.4H2252.16z M2317.72,1042.05c0.23-0.8,0.4-1.81,0.52-3.01c0.11-1.21,0.17-2.61,0.17-4.22
			c0-3.56-0.49-6.91-1.47-10.07c-0.98-3.15-2.51-5.94-4.58-8.35c-2.08-2.41-4.67-4.33-7.79-5.77c-3.11-1.43-6.81-2.15-11.07-2.15
			c-4.96,0-9.57,0.89-13.84,2.67c-4.27,1.78-8.13,4.22-11.59,7.32s-6.4,6.68-8.82,10.76c-2.42,4.07-4.27,8.35-5.54,12.82H2317.72z"
			/>
		<path d="M2387.78,1084.08l72.31-56.31c7.03-5.54,12.34-10.66,15.92-15.33c3.57-4.68,5.36-9.84,5.36-15.51
			c0-6.01-2.25-11-6.75-14.99s-10.9-5.98-19.2-5.98c-7.27,0-13.75,1.73-19.46,5.19c-5.71,3.46-10.76,7.5-15.14,12.11l-6.4-5.54
			c2.65-2.77,5.48-5.33,8.48-7.7c3-2.36,6.2-4.45,9.6-6.26c3.4-1.81,7.03-3.22,10.9-4.24c3.86-1.02,7.99-1.52,12.37-1.52
			c5.19,0,9.92,0.69,14.19,2.08c4.27,1.38,7.91,3.35,10.95,5.88c3.03,2.54,5.4,5.6,7.09,9.17c1.7,3.58,2.55,7.5,2.55,11.76
			c0,7.15-2.22,13.58-6.66,19.29c-4.44,5.71-10.53,11.56-18.25,17.56l-62.63,48.44h69.89l-2.25,8.65h-84.42L2387.78,1084.08z"/>
		<path d="M2547.46,1092.91c-6.69,0-12.57-1.15-17.65-3.46c-5.08-2.31-9.32-5.48-12.72-9.52c-3.4-4.04-5.97-8.82-7.7-14.36
			c-1.73-5.54-2.6-11.53-2.6-17.99c0-6.57,0.72-13.12,2.16-19.64c1.44-6.51,3.46-12.71,6.05-18.6c2.59-5.88,5.77-11.39,9.52-16.52
			c3.75-5.13,7.93-9.54,12.54-13.23c4.61-3.69,9.6-6.6,14.96-8.74c5.36-2.13,11.04-3.2,17.04-3.2c6.69,0,12.57,1.15,17.65,3.46
			c5.07,2.31,9.31,5.48,12.71,9.51c3.4,4.04,5.97,8.82,7.7,14.36c1.73,5.54,2.59,11.53,2.59,17.99c0,9.92-1.56,19.64-4.67,29.15
			c-3.11,9.52-7.44,18.05-12.98,25.6c-5.54,7.56-12.11,13.64-19.72,18.25C2564.76,1090.61,2556.46,1092.91,2547.46,1092.91z
			 M2547.94,1084.96c7.06,0,13.81-2.08,20.24-6.25c6.43-4.17,12.02-9.63,16.76-16.4c4.75-6.77,8.54-14.46,11.38-23.08
			c2.84-8.62,4.26-17.38,4.26-26.29c0-5.21-0.67-10.06-2-14.58c-1.33-4.51-3.33-8.45-5.99-11.8c-2.67-3.35-5.99-6.01-9.99-7.98
			c-4-1.97-8.66-2.95-13.98-2.95c-7.18,0-13.96,2.08-20.33,6.25c-6.37,4.17-11.93,9.63-16.68,16.4
			c-4.75,6.77-8.54,14.46-11.38,23.08c-2.84,8.62-4.25,17.38-4.25,26.29c0,5.21,0.66,10.07,2,14.58c1.33,4.51,3.33,8.45,5.99,11.8
			c2.66,3.36,5.99,6.02,9.99,7.98C2537.95,1083.98,2542.61,1084.96,2547.94,1084.96z"/>
		<path d="M2662.68,979.25l-25.43,7.96l-0.35-8.13l30.45-10.21h7.09l-32.7,121.96h-9L2662.68,979.25z"/>
		<path d="M2719.42,1092.91c-5.19,0-9.86-0.59-14.01-1.77c-4.15-1.18-7.9-2.76-11.25-4.76c-3.35-1.99-6.29-4.29-8.82-6.88
			c-2.54-2.6-4.79-5.39-6.75-8.39l7.44-4.67c3.81,5.65,8.42,10.15,13.84,13.49c5.42,3.35,12.11,5.02,20.07,5.02
			c5.88,0,11.25-0.95,16.09-2.85s8.97-4.4,12.37-7.5c3.4-3.1,6.03-6.7,7.87-10.78c1.84-4.08,2.77-8.31,2.77-12.68
			c0-4.14-0.75-7.82-2.25-11.04c-1.5-3.22-3.55-5.92-6.14-8.11c-2.59-2.18-5.65-3.85-9.17-5c-3.52-1.15-7.35-1.72-11.5-1.72
			c-4.15,0-8.62,0.61-13.41,1.82c-4.79,1.21-9.6,3.14-14.45,5.8l-5.71-4.5l19.2-58.65h65.22l-2.42,8.65h-57.26l-14.88,44.51
			c1.27-0.68,2.88-1.35,4.84-2.03c1.96-0.68,4.04-1.27,6.23-1.78c2.19-0.51,4.41-0.93,6.66-1.27c2.25-0.34,4.24-0.51,5.97-0.51
			c5.88,0,11.19,0.78,15.92,2.33c4.73,1.55,8.75,3.8,12.07,6.73c3.32,2.94,5.86,6.47,7.61,10.62c1.75,4.14,2.63,8.8,2.63,13.98
			c0,5.64-1.16,10.99-3.48,16.05s-5.61,9.52-9.86,13.38c-4.25,3.85-9.38,6.9-15.38,9.15
			C2733.5,1091.79,2726.8,1092.91,2719.42,1092.91z"/>
	</g>
</g>
<g>
	<path class="st2" d="M1424.28,434.55h147.39c34.58,0,66.32,5.57,95.2,16.69c28.89,11.13,53.78,26.56,74.64,46.29
		c20.88,19.74,37.01,42.93,48.39,69.59c11.39,26.67,17.09,55.53,17.09,86.6v1.26c0,31.08-5.7,60.05-17.09,86.91
		c-11.38,26.87-27.51,50.18-48.39,69.91c-20.86,19.74-45.75,35.27-74.64,46.6c-28.89,11.33-60.62,17-95.2,17h-147.39V434.55z
		 M1571.67,845.82c30.78,0,58.61-4.94,83.5-14.85c24.88-9.89,45.96-23.37,63.26-40.44c17.28-17.06,30.68-37.07,40.18-60.02
		c9.48-22.96,14.23-47.71,14.23-74.26v-1.26c0-26.11-4.74-50.76-14.23-73.92c-9.5-23.16-22.89-43.39-40.18-60.67
		c-17.3-17.27-38.39-30.96-63.26-41.07c-24.89-10.11-52.72-15.16-83.5-15.16h-114.5v381.66H1571.67z"/>
	<path class="st2" d="M2010.04,882.98c-15.18,0-30.15-2.1-44.9-6.29c-14.76-4.2-28.05-10.5-39.86-18.9
		c-11.81-8.4-21.4-18.89-28.78-31.5c-7.38-12.59-11.07-27.29-11.07-44.08v-1.26c0-16.79,3.47-31.7,10.44-44.72
		c6.96-13.01,16.54-23.94,28.78-32.75c12.23-8.81,26.98-15.53,44.28-20.15c17.28-4.62,36.48-6.93,57.56-6.93
		c22.77,0,42.38,1.25,58.83,3.77c16.45,2.52,32.47,5.89,48.08,10.08v-13.78c0-32.56-9.39-56.98-28.16-73.27
		c-18.76-16.29-44.81-24.43-78.12-24.43c-19.83,0-37.95,2.42-54.4,7.24c-16.45,4.83-32.06,11.03-46.81,18.58l-11.39-27.11
		c17.72-8.58,35.64-15.44,53.78-20.59c18.12-5.15,38.37-7.73,60.73-7.73c44.28,0,78.22,11.76,101.84,35.27
		c21.92,21.83,32.9,52.07,32.9,90.69v200.28h-30.36v-53.53c-5.49,7.55-12.12,15.02-19.92,22.36c-7.81,7.35-16.76,13.85-26.89,19.52
		s-21.62,10.29-34.48,13.85C2039.24,881.19,2025.22,882.98,2010.04,882.98z M2011.95,853.38c16.45,0,32.03-2.4,46.81-7.21
		c14.75-4.8,27.72-11.49,38.89-20.07c11.17-8.58,20.03-18.92,26.58-31.05c6.53-12.12,9.8-25.5,9.8-40.14v-36.37
		c-13.5-3.35-29.3-6.58-47.44-9.72c-18.13-3.12-38.8-4.71-61.99-4.71c-34.17,0-60.41,6.8-78.76,20.39
		c-18.34,13.59-27.52,31.67-27.52,54.24V780c0,11.71,2.52,22.06,7.59,31.04c5.05,9,11.9,16.63,20.55,22.89
		c8.65,6.28,18.67,11.08,30.05,14.43C1987.91,851.71,1999.71,853.38,2011.95,853.38z"/>
	<path class="st2" d="M2382.63,881.09c-12.65,0-24.46-1.68-35.42-5.03c-10.98-3.36-20.57-8.71-28.78-16.06
		c-8.23-7.34-14.66-16.57-19.3-27.71c-4.65-11.11-6.96-24.24-6.96-39.36V582.55h-46.81v-28.34h46.81V451.56h31v102.66h113.24v28.34
		h-113.24v206.73c0,23.06,6.01,39.18,18.03,48.39c12.02,9.21,27.52,13.82,46.5,13.82c7.99,0,15.58-0.78,22.77-2.38
		c7.16-1.59,15.39-4.36,24.67-8.33v28.97c-8.44,3.78-16.76,6.61-24.99,8.5C2401.93,880.15,2392.76,881.09,2382.63,881.09z"/>
	<path class="st2" d="M2626.18,882.98c-15.18,0-30.15-2.1-44.92-6.29c-14.77-4.2-28.05-10.5-39.85-18.9
		c-11.81-8.4-21.42-18.89-28.78-31.5c-7.38-12.59-11.06-27.29-11.06-44.08v-1.26c0-16.79,3.47-31.7,10.42-44.72
		c6.96-13.01,16.55-23.94,28.78-32.75c12.23-8.81,26.99-15.53,44.29-20.15c17.29-4.62,36.46-6.93,57.56-6.93
		c22.77,0,42.38,1.25,58.83,3.77c16.45,2.52,32.47,5.89,48.06,10.08v-13.78c0-32.56-9.38-56.98-28.14-73.27
		c-18.78-16.29-44.81-24.43-78.13-24.43c-19.82,0-37.96,2.42-54.4,7.24c-16.45,4.83-32.05,11.03-46.81,18.58l-11.38-27.11
		c17.7-8.58,35.63-15.44,53.76-20.59c18.14-5.15,38.37-7.73,60.73-7.73c44.29,0,78.23,11.76,101.86,35.27
		c21.92,21.83,32.88,52.07,32.88,90.69v200.28h-30.36v-53.53c-5.47,7.55-12.12,15.02-19.92,22.36c-7.8,7.35-16.76,13.85-26.89,19.52
		c-10.11,5.67-21.61,10.29-34.46,13.85C2655.38,881.19,2641.36,882.98,2626.18,882.98z M2628.07,853.38
		c16.45,0,32.05-2.4,46.81-7.21c14.76-4.8,27.72-11.49,38.91-20.07c11.17-8.58,20.03-18.92,26.56-31.05
		c6.53-12.12,9.81-25.5,9.81-40.14v-36.37c-13.51-3.35-29.32-6.58-47.45-9.72c-18.13-3.12-38.8-4.71-61.98-4.71
		c-34.17,0-60.41,6.8-78.77,20.39c-18.34,13.59-27.51,31.67-27.51,54.24V780c0,11.71,2.54,22.06,7.59,31.04
		c5.07,9,11.92,16.63,20.57,22.89c8.63,6.28,18.66,11.08,30.05,14.43C2604.04,851.71,2615.84,853.38,2628.07,853.38z"/>
</g>
<g>
	<g>
		<g>
			<defs>
				<path id="SVGID_1_" d="M0,450.55l254.17,132.76v271.53 M0,450.54v271.54l254.17,132.76"/>
			</defs>
			<use xlink:href="#SVGID_1_"  style="overflow:visible;fill:#489BB7;"/>
			<clipPath id="SVGID_2_">
				<use xlink:href="#SVGID_1_"  style="overflow:visible;"/>
			</clipPath>
		</g>
	</g>
	<g>
		<g>
			<defs>
				<path id="SVGID_3_" d="M267.18,558.66L14.83,425.91l254.18-130.49L523.2,426.66L267.18,558.66L267.18,558.66L267.18,558.66z"/>
			</defs>
			<use xlink:href="#SVGID_3_"  style="overflow:visible;fill:#EC9041;"/>
			<clipPath id="SVGID_4_">
				<use xlink:href="#SVGID_3_"  style="overflow:visible;"/>
			</clipPath>
		</g>
	</g>
	<g>
		<g>
			<defs>
				<polyline id="SVGID_5_" points="283.86,583.42 538.04,450.54 538.04,722.08 283.86,854.95 				"/>
			</defs>
			<use xlink:href="#SVGID_5_"  style="overflow:visible;fill-rule:evenodd;clip-rule:evenodd;fill:#667B83;"/>
			<clipPath id="SVGID_6_">
				<use xlink:href="#SVGID_5_"  style="overflow:visible;"/>
			</clipPath>
		</g>
	</g>
	<g>
		<g>
			<defs>
				<path id="SVGID_7_" d="M0,755.02l254.17,132.76v271.52 M0,755.02v271.52l254.17,132.76"/>
			</defs>
			<use xlink:href="#SVGID_7_"  style="overflow:visible;fill:#489BB7;"/>
			<clipPath id="SVGID_8_">
				<use xlink:href="#SVGID_7_"  style="overflow:visible;"/>
			</clipPath>
		</g>
	</g>
	<g>
		<defs>
			<path id="SVGID_9_" d="M283.1,0l254.18,132.76v271.52 M283.1,0v271.52l254.18,132.76"/>
		</defs>
		<use xlink:href="#SVGID_9_"  style="overflow:visible;fill:#EC9041;"/>
		<clipPath id="SVGID_10_">
			<use xlink:href="#SVGID_9_"  style="overflow:visible;"/>
		</clipPath>
	</g>
</g>
<g>
</g>
<g>
</g>
<g>
</g>
<g>
</g>
<g>
</g>
<g>
</g>
<g>
</g>
</svg>
