<svg width="71" height="85" viewBox="0 0 71 85" fill="none" xmlns="http://www.w3.org/2000/svg">
<path d="M67.6521 39.9467C67.6521 57.9864 53.324 72.6218 35.6632 72.6218C18.0024 72.6218 3.67432 57.9864 3.67432 39.9467C3.67432 21.9071 17.9887 7.27173 35.6632 7.27173C53.3377 7.27173 67.6521 21.8932 67.6521 39.9467Z" fill="#F37626"/>
<path d="M59.7866 6.11378C59.7866 2.94673 62.2999 0.393555 65.3868 0.393555C68.4874 0.393555 71.0006 2.96068 71.0006 6.11378C71.0006 9.28083 68.4874 11.834 65.3868 11.834C62.2862 11.834 59.7866 9.28083 59.7866 6.11378Z" fill="#757575"/>
<path d="M20.6251 77.3512C20.6798 78.6766 20.352 79.9881 19.6827 81.1042C19.0134 82.2343 18.0436 83.1412 16.8826 83.6993C15.7216 84.2573 14.424 84.4527 13.1537 84.2434C11.8834 84.0481 10.7088 83.4621 9.75267 82.5552C8.81021 81.6623 8.14093 80.5043 7.84044 79.2207C7.53994 77.9372 7.60824 76.5839 8.05898 75.3422C8.49607 74.1005 9.28829 73.0262 10.3264 72.2449C11.3644 71.4636 12.6074 71.0171 13.8913 70.9613C15.6123 70.8915 17.2787 71.5194 18.549 72.7192C19.8056 73.9191 20.5568 75.5933 20.6251 77.3512Z" fill="#9E9E9E"/>
<path d="M4.6993 12.3494C3.87977 12.3912 3.06023 12.168 2.34996 11.7355C1.65336 11.289 1.07965 10.6472 0.738178 9.8799C0.383046 9.11255 0.273774 8.24754 0.396705 7.41043C0.519635 6.57333 0.888453 5.79203 1.44847 5.1642C2.00848 4.53637 2.73241 4.10386 3.53828 3.89459C4.34416 3.69926 5.17734 3.74112 5.9559 4.03411C6.73446 4.32709 7.40376 4.84331 7.89548 5.5409C8.38721 6.22453 8.66037 7.04769 8.68769 7.89875C8.72866 9.02884 8.33257 10.145 7.59499 10.9821C6.83009 11.8052 5.79202 12.3075 4.6993 12.3494Z" fill="#616161"/>
</svg>
