<svg width="169" height="45" viewBox="0 0 169 45" fill="none" xmlns="http://www.w3.org/2000/svg">
<g clip-path="url(#clip0)">
<path d="M128.573 23.2041C127.802 23.6129 126.094 24.0255 123.94 24.0255C118.241 24.0255 114.777 20.3613 114.777 14.759C114.777 8.69112 118.879 5.02692 124.368 5.02692C126.526 5.02692 128.071 5.49251 128.735 5.84833L128.016 8.52835C127.164 8.14603 125.991 7.81671 124.501 7.81671C120.853 7.81671 118.215 10.1674 118.215 14.5962C118.215 18.6428 120.532 21.2395 124.475 21.2395C125.806 21.2395 127.193 20.9669 128.046 20.5543L128.573 23.2041Z" fill="#F37626"/>
<path d="M154.526 23.7492V5.32596H158.256L162.892 13.2259C164.091 15.2776 165.131 17.4087 165.954 19.4036H166.006C165.792 16.9431 165.714 14.5659 165.714 11.7497V5.32596H168.75V23.7492H165.367L160.679 15.6561C159.532 13.6348 158.333 11.3636 157.455 9.2892L157.374 9.3157C157.507 11.6929 157.533 14.1269 157.533 17.1589V23.7454H154.526V23.7492Z" fill="#F37626"/>
<path d="M150.226 14.5243C150.226 19.4187 146.356 23.3895 141.587 23.3895C136.817 23.3895 132.948 19.4187 132.948 14.5243C132.948 9.62984 136.813 5.65903 141.587 5.65903C146.36 5.65903 150.226 9.62605 150.226 14.5243Z" fill="#F37626"/>
<path d="M148.101 5.34492C148.101 4.48565 148.779 3.79294 149.613 3.79294C150.45 3.79294 151.129 4.48944 151.129 5.34492C151.129 6.20419 150.45 6.89691 149.613 6.89691C148.776 6.89691 148.101 6.20419 148.101 5.34492Z" fill="#757575"/>
<path d="M137.525 24.6728C137.54 25.0324 137.452 25.3882 137.271 25.691C137.09 25.9977 136.828 26.2437 136.515 26.3951C136.201 26.5465 135.851 26.5995 135.508 26.5427C135.165 26.4897 134.847 26.3308 134.589 26.0847C134.335 25.8425 134.154 25.5283 134.073 25.18C133.992 24.8318 134.01 24.4646 134.132 24.1277C134.25 23.7908 134.464 23.4993 134.744 23.2874C135.024 23.0754 135.36 22.9542 135.707 22.9391C136.172 22.9202 136.622 23.0905 136.965 23.4161C137.304 23.7416 137.507 24.1958 137.525 24.6728Z" fill="#9E9E9E"/>
<path d="M133.224 7.03689C133.003 7.04825 132.782 6.98768 132.59 6.87034C132.402 6.74921 132.247 6.57508 132.155 6.36689C132.059 6.1587 132.029 5.92401 132.062 5.69689C132.096 5.46977 132.195 5.25779 132.346 5.08745C132.498 4.91711 132.693 4.79976 132.911 4.74298C133.128 4.68999 133.353 4.70134 133.564 4.78084C133.774 4.86033 133.955 5.00039 134.088 5.18965C134.22 5.37513 134.294 5.59847 134.301 5.82937C134.313 6.13598 134.206 6.43881 134.006 6.66593C133.8 6.88927 133.519 7.02554 133.224 7.03689Z" fill="#616161"/>
<path d="M0 30.2751C1.57138 30.1994 2.91775 29.6997 3.74033 28.742C4.67356 27.5913 5.0867 26.1339 5.0867 21.2622V5.33353H6.84251V22.4849C6.84251 25.7857 6.50684 28.0493 4.93546 29.7754C3.66286 31.2328 1.42014 31.7324 0.22501 31.7703L0 30.2751Z" fill="#757575"/>
<path d="M27.2188 19.2598C27.2188 20.8723 27.2926 22.3297 27.3701 23.7492H25.7249L25.6143 20.4862H25.5405C24.6441 22.1745 22.5859 24.1693 19.373 24.1693C17.0934 24.1693 13.2793 23.0186 13.2793 16.0347V5.33353H15.0351V15.694C15.0351 19.6837 16.2671 22.5606 19.8193 22.5606C22.4383 22.5606 24.3454 20.6793 25.0905 18.8396C25.2786 18.2642 25.463 17.5336 25.463 16.8069V5.33353H27.2188V19.2598Z" fill="#757575"/>
<path d="M33.8365 11.2046C33.8365 8.9031 33.7627 7.05964 33.689 5.33353H35.371L35.5186 8.82739H35.5923C36.8649 6.37071 39.0708 4.91336 42.2098 4.91336C46.8096 4.91336 49.9118 8.82739 49.9118 14.2366C49.9118 20.8345 46.0977 24.1731 41.7598 24.1731C39.1814 24.1731 36.8981 22.9845 35.6661 20.7588H35.5923V31.3501H33.8365V11.2046ZM35.5923 16.5003C35.5923 16.9999 35.6661 17.4996 35.7436 17.9576C36.4924 20.7966 38.8826 22.6401 41.6492 22.6401C45.762 22.6401 48.1191 19.2257 48.1191 14.3161C48.1191 10.1712 45.8764 6.41235 41.8004 6.41235C39.1814 6.41235 36.6399 8.29366 35.8542 11.3257C35.7436 11.8254 35.5923 12.4007 35.5923 12.9004V16.5003Z" fill="#757575"/>
<path d="M54.7733 5.33353L59.4837 17.3822C59.9706 18.6882 60.4575 20.1455 60.7932 21.3341H60.867C61.2395 20.1834 61.6895 18.7639 62.2502 17.2649L66.625 5.33353H68.5321L63.1466 19.0705C60.9776 24.7863 59.4431 28.2007 57.0898 30.3129C55.6696 31.5394 54.397 32.0769 53.9507 32.2321L53.39 30.699C54.2864 30.3546 55.4852 29.6997 56.5291 28.6247C57.4254 27.7427 58.6242 26.2096 59.5206 24.0217C59.6681 23.5977 59.7456 23.4085 59.7456 23.2154C59.7456 23.0224 59.6718 22.7953 59.5206 22.4092L52.8662 5.33353H54.7733Z" fill="#757575"/>
<path d="M74.9613 0V5.33353H80.0848V6.79088H74.9613V18.7639C74.9613 21.1032 75.6732 22.6022 77.5765 22.6022C78.5135 22.6022 79.1848 22.447 79.6348 22.2956L79.8598 23.7151C79.2623 23.946 78.4397 24.139 77.3552 24.139C76.0457 24.139 74.9613 23.7151 74.2899 22.8331C73.4673 21.8754 73.1686 20.3386 73.1686 18.4573V6.79088H70.1401V5.33353H73.1686V0.57537L74.9613 0Z" fill="#757575"/>
<path d="M84.8693 14.3502C84.8693 20.2591 88.0084 22.5606 91.7118 22.5606C94.3308 22.5606 95.6735 22.0231 96.6842 21.5234L97.1342 22.9807C96.4628 23.3631 94.6296 24.1315 91.4905 24.1315C86.33 24.1315 83.1172 20.2932 83.1172 14.8839C83.1172 8.74411 86.555 4.90958 91.1917 4.90958C97.0604 4.90958 98.1818 10.5876 98.1818 13.2335C98.1818 13.7332 98.1818 14.0398 98.108 14.3464H84.8693V14.3502ZM96.3116 12.8928C96.3485 10.3226 95.3009 6.40857 90.9667 6.40857C87.0051 6.40857 85.2824 10.0538 84.9837 12.8928H96.3116Z" fill="#757575"/>
<path d="M103.748 10.8601C103.748 9.01666 103.674 7.10128 103.597 5.33353H105.242L105.316 9.05451H105.389C106.175 6.75303 108.045 4.90958 110.513 4.90958C110.738 4.90958 111 4.94743 111.221 4.98528V6.74925C110.959 6.67354 110.697 6.67354 110.362 6.67354C107.894 6.67354 106.138 8.86146 105.651 11.814C105.578 12.3515 105.5 12.9648 105.5 13.578V23.7454H103.744V10.8601H103.748Z" fill="#757575"/>
<path d="M64.4561 44.807V43.2058L65.8799 41.8847C68.2886 39.6741 69.4579 38.406 69.4911 37.0849C69.4911 36.1613 68.9489 35.4307 67.6763 35.4307C66.7283 35.4307 65.8946 35.919 65.3192 36.3695L64.5888 34.473C65.4188 33.8295 66.7061 33.3071 68.2001 33.3071C70.6936 33.3071 72.0658 34.8023 72.0658 36.8578C72.0658 38.7542 70.7268 40.2684 69.1333 41.7295L68.1152 42.6001V42.6342H72.2687V44.807H64.4561Z" fill="#F37626"/>
<path d="M83.2722 39.1025C83.2722 42.6001 81.9 45 79.0856 45C76.2379 45 74.9838 42.373 74.9653 39.1706C74.9653 35.9001 76.3228 33.3071 79.1704 33.3071C82.1214 33.3071 83.2722 36.0061 83.2722 39.1025ZM77.5622 39.1706C77.5437 41.7636 78.156 42.9976 79.1557 42.9976C80.1553 42.9976 80.6975 41.7106 80.6975 39.1365C80.6975 36.6306 80.1737 35.3096 79.1372 35.3096C78.1892 35.3096 77.5437 36.5436 77.5622 39.1706Z" fill="#F37626"/>
<path d="M85.478 44.807V43.2058L86.9019 41.8847C89.3106 39.6741 90.4799 38.406 90.5131 37.0849C90.5131 36.1613 89.9709 35.4307 88.6983 35.4307C87.7503 35.4307 86.9166 35.919 86.3412 36.3695L85.6108 34.473C86.4408 33.8295 87.7281 33.3071 89.222 33.3071C91.7156 33.3071 93.0878 34.8023 93.0878 36.8578C93.0878 38.7542 91.7488 40.2684 90.1553 41.7295L89.1372 42.6001V42.6342H93.2907V44.807H85.478Z" fill="#F37626"/>
<path d="M104.294 39.1025C104.294 42.6001 102.922 45 100.107 45C97.2594 45 96.0053 42.373 95.9868 39.1706C95.9868 35.9001 97.3443 33.3071 100.192 33.3071C103.139 33.3071 104.294 36.0061 104.294 39.1025ZM98.58 39.1706C98.5615 41.7636 99.1738 42.9976 100.173 42.9976C101.173 42.9976 101.715 41.7106 101.715 39.1365C101.715 36.6306 101.188 35.3096 100.155 35.3096C99.207 35.3096 98.5652 36.5436 98.58 39.1706Z" fill="#F37626"/>
</g>
<defs>
<clipPath id="clip0">
<rect width="168.75" height="45" fill="white"/>
</clipPath>
</defs>
</svg>
