<svg width="44" height="51" viewBox="0 0 44 51" fill="none" xmlns="http://www.w3.org/2000/svg">
<path d="M35.5994 4.46791C35.5994 2.67333 37.0169 1.22659 38.758 1.22659C40.5067 1.22659 41.9242 2.68123 41.9242 4.46791C41.9242 6.26249 40.5067 7.70922 38.758 7.70922C37.0092 7.70922 35.5994 6.26249 35.5994 4.46791Z" fill="#757575"/>
<path d="M13.5126 44.8341C13.5434 45.5851 13.3585 46.3282 12.981 46.9607C12.6035 47.601 12.0566 48.1149 11.4017 48.4311C10.7469 48.7474 10.015 48.858 9.29857 48.7394C8.58212 48.6288 7.91959 48.2967 7.38032 47.7829C6.84876 47.2769 6.47127 46.6207 6.30179 45.8934C6.1323 45.1661 6.17083 44.3992 6.42505 43.6956C6.67158 42.992 7.1184 42.3833 7.70389 41.9406C8.28939 41.4979 8.99043 41.2449 9.71459 41.2133C10.6853 41.1737 11.6251 41.5295 12.3416 42.2094C13.0504 42.8893 13.4741 43.8379 13.5126 44.8341Z" fill="#9E9E9E"/>
<path d="M4.53005 8.00159C4.06782 8.0253 3.60559 7.89881 3.20499 7.65374C2.81209 7.40076 2.48851 7.0371 2.29591 6.60229C2.09561 6.16748 2.03398 5.67733 2.10332 5.20299C2.17265 4.72865 2.38067 4.28593 2.69653 3.93018C3.01239 3.57442 3.42069 3.32935 3.87522 3.21076C4.32975 3.10008 4.79967 3.1238 5.23879 3.28982C5.67791 3.45584 6.05541 3.74835 6.33275 4.14363C6.61009 4.53101 6.76416 4.99744 6.77956 5.47968C6.80267 6.12004 6.57927 6.75249 6.16326 7.22683C5.73185 7.69327 5.14636 7.97787 4.53005 8.00159Z" fill="#616161"/>
<path d="M41.9241 23.5645C41.9241 34.309 32.9999 43.026 21.9999 43.026C10.9999 43.026 2.07568 34.309 2.07568 23.5645C2.07568 12.8199 10.9914 4.10294 21.9999 4.10294C33.0084 4.10294 41.9241 12.8199 41.9241 23.5645Z" fill="#F37626"/>
<path d="M16.6965 29.3095L27.3031 18.7029" stroke="white" stroke-width="1.5"/>
<path d="M16.6965 18.7029L27.3031 29.3095" stroke="white" stroke-width="1.5"/>
</svg>
