<svg width="44" height="51" viewBox="0 0 44 51" fill="none" xmlns="http://www.w3.org/2000/svg">
<path d="M35.5996 4.46791C35.5996 2.67333 37.0171 1.22659 38.7582 1.22659C40.507 1.22659 41.9245 2.68123 41.9245 4.46791C41.9245 6.26249 40.507 7.70922 38.7582 7.70922C37.0094 7.70922 35.5996 6.26249 35.5996 4.46791Z" fill="#757575"/>
<path d="M13.5131 44.8341C13.5439 45.5851 13.359 46.3282 12.9815 46.9607C12.604 47.601 12.057 48.1149 11.4022 48.4311C10.7474 48.7474 10.0155 48.858 9.29906 48.7394C8.5826 48.6288 7.92008 48.2967 7.38081 47.7829C6.84925 47.2769 6.47176 46.6207 6.30228 45.8934C6.13279 45.1661 6.17131 44.3992 6.42554 43.6956C6.67206 42.992 7.11889 42.3833 7.70438 41.9406C8.28988 41.4979 8.99091 41.2449 9.71508 41.2133C10.6858 41.1737 11.6256 41.5295 12.3421 42.2094C13.0508 42.8893 13.4745 43.8379 13.5131 44.8341Z" fill="#9E9E9E"/>
<path d="M4.53029 8.00159C4.06806 8.0253 3.60583 7.89881 3.20523 7.65374C2.81233 7.40076 2.48875 7.0371 2.29616 6.60229C2.09586 6.16748 2.03423 5.67733 2.10356 5.20299C2.1729 4.72865 2.38091 4.28593 2.69677 3.93018C3.01263 3.57442 3.42093 3.32935 3.87546 3.21076C4.32999 3.10008 4.79992 3.1238 5.23904 3.28982C5.67816 3.45584 6.05566 3.74835 6.33299 4.14363C6.61033 4.53101 6.7644 4.99744 6.77981 5.47968C6.80292 6.12004 6.57952 6.75249 6.16351 7.22683C5.73209 7.69327 5.1466 7.97787 4.53029 8.00159Z" fill="#616161"/>
<path d="M41.9241 23.5645C41.9241 34.309 32.9999 43.026 21.9999 43.026C10.9999 43.026 2.07568 34.309 2.07568 23.5645C2.07568 12.8199 10.9914 4.10294 21.9999 4.10294C33.0084 4.10294 41.9241 12.8199 41.9241 23.5645Z" fill="#F37626"/>
<path d="M14.5 19.0062H29.5" stroke="white" stroke-width="1.5"/>
<path d="M14.5 24.0062H29.5" stroke="white" stroke-width="1.5"/>
<path d="M14.5 29.0062H29.5" stroke="white" stroke-width="1.5"/>
</svg>
