<svg width="51" height="51" viewBox="0 0 51 51" fill="none" xmlns="http://www.w3.org/2000/svg">
<path d="M25.0193 0.625061C11.2224 0.625061 0.0244141 11.823 0.0244141 25.62C0.0244141 39.4271 11.2224 50.6149 25.0193 50.6149C38.8264 50.6149 50.0143 39.4271 50.0143 25.62C50.0244 11.823 38.8264 0.625061 25.0193 0.625061ZM37.6183 20.5845C37.6285 20.8586 37.6386 21.1225 37.6386 21.3966C37.6386 29.7215 31.3036 39.3256 19.7097 39.3256C16.1564 39.3256 12.8366 38.2799 10.0549 36.4931C10.5523 36.554 11.0498 36.5844 11.5574 36.5844C14.5117 36.5844 17.2224 35.5794 19.3848 33.8839C16.6234 33.8332 14.2985 32.0159 13.4965 29.5083C13.8823 29.5794 14.2782 29.62 14.6843 29.62C15.263 29.62 15.8112 29.5388 16.3493 29.3966C13.466 28.818 11.2934 26.2697 11.2934 23.224C11.2934 23.1936 11.2934 23.1733 11.2934 23.1428C12.1462 23.6098 13.1107 23.8941 14.1462 23.9347C12.4508 22.7976 11.3442 20.8789 11.3442 18.686C11.3442 17.5286 11.6589 16.4525 12.197 15.5185C15.3036 19.3256 19.9432 21.8332 25.1818 22.0971C25.0701 21.6403 25.0193 21.153 25.0193 20.6657C25.0193 17.1834 27.8417 14.3611 31.3239 14.3611C33.1412 14.3611 34.7757 15.1225 35.9229 16.3509C37.3544 16.0667 38.7046 15.5489 39.9229 14.818C39.4559 16.29 38.4508 17.5286 37.1513 18.3002C38.4305 18.1479 39.6386 17.8129 40.7655 17.3053C39.9229 18.5845 38.8467 19.7012 37.6183 20.5845Z" fill="white"/>
</svg>
