<svg width="50" height="50" viewBox="0 0 50 50" fill="none" xmlns="http://www.w3.org/2000/svg">
<path d="M14.3281 27.1121H16.1356V36.0987H17.8923V27.1121H19.6998V25.5788H14.3281V27.1121Z" fill="white"/>
<path d="M25.0712 19.6385C25.3047 19.6385 25.4976 19.5776 25.6398 19.4456C25.782 19.3136 25.853 19.1308 25.853 18.9074V14.2465C25.853 14.0638 25.782 13.9114 25.6398 13.7896C25.4976 13.6677 25.3149 13.617 25.0813 13.617C24.8681 13.617 24.6954 13.6779 24.5634 13.7896C24.4314 13.9013 24.3604 14.0536 24.3604 14.2465V18.9074C24.3604 19.1409 24.4213 19.3237 24.5431 19.4456C24.665 19.5776 24.8376 19.6385 25.0712 19.6385Z" fill="white"/>
<path d="M28.9296 28.2392C28.6859 28.2392 28.4524 28.3002 28.2087 28.422C27.9751 28.5439 27.7517 28.7266 27.5486 28.9602V25.5686H25.9849V36.0987H27.5486V35.4996C27.7517 35.7433 27.9751 35.9159 28.2087 36.0276C28.4422 36.1393 28.7164 36.2002 29.021 36.2002C29.478 36.2002 29.8334 36.0581 30.0771 35.7636C30.3208 35.4691 30.4426 35.0426 30.4426 34.4943V30.1889C30.4426 29.5491 30.3106 29.0719 30.0568 28.7368C29.7927 28.4118 29.417 28.2392 28.9296 28.2392ZM28.8484 34.2912C28.8484 34.5451 28.8078 34.7177 28.7164 34.8294C28.625 34.9411 28.493 34.9919 28.3001 34.9919C28.168 34.9919 28.0462 34.9614 27.9243 34.9106C27.8025 34.8599 27.6806 34.7583 27.5588 34.6365V29.803C27.6603 29.6913 27.772 29.6101 27.8736 29.5694C27.9853 29.5187 28.0868 29.4882 28.1985 29.4882C28.4118 29.4882 28.5742 29.5593 28.6859 29.6913C28.7976 29.8233 28.8484 30.0264 28.8484 30.2904V34.2912Z" fill="white"/>
<path d="M23.2638 34.2405C23.1217 34.4029 22.9592 34.5451 22.7866 34.6568C22.6139 34.7685 22.4616 34.8193 22.3499 34.8193C22.2078 34.8193 22.0961 34.7786 22.0351 34.6974C21.9742 34.6162 21.9438 34.4842 21.9438 34.3014V28.3408H20.3901V34.8294C20.3901 35.2965 20.4815 35.6316 20.6643 35.8753C20.8471 36.1089 21.1111 36.2206 21.4767 36.2206C21.7711 36.2206 22.0656 36.1393 22.3804 35.9769C22.6952 35.8042 22.9896 35.5707 23.274 35.2559V36.1089H24.8276V28.3408H23.274V34.2405H23.2638Z" fill="white"/>
<path d="M25 0C11.2002 0 0 11.2002 0 25C0 38.8099 11.2002 50 25 50C38.7998 50 50 38.8099 50 25C50.0102 11.2002 38.8099 0 25 0ZM29.0414 12.3477H30.788V18.9074C30.788 19.1105 30.8286 19.2526 30.8997 19.344C30.9708 19.4354 31.0926 19.4862 31.2551 19.4862C31.3871 19.4862 31.5496 19.4253 31.7425 19.3034C31.9354 19.1816 32.1182 19.0292 32.2807 18.8363V12.3477H34.0272V20.8976H32.2807V19.9533C31.9659 20.2985 31.6308 20.5727 31.2754 20.7453C30.9301 20.9281 30.595 21.0195 30.26 21.0195C29.8538 21.0195 29.5491 20.8875 29.3461 20.6336C29.143 20.3798 29.0414 20.0041 29.0414 19.4862V12.3477ZM22.5528 14.3075C22.5528 13.6474 22.7864 13.1194 23.2535 12.7234C23.7206 12.3375 24.3603 12.1344 25.1523 12.1344C25.8733 12.1344 26.4724 12.3477 26.9293 12.7539C27.3863 13.1702 27.6198 13.6982 27.6198 14.3582V18.7754C27.6198 19.5065 27.3964 20.0853 26.9395 20.5016C26.4825 20.918 25.8631 21.121 25.0711 21.121C24.3095 21.121 23.6901 20.9078 23.2331 20.4813C22.7762 20.0447 22.5427 19.4659 22.5427 18.7449V14.3075H22.5528ZM17.8006 9.31154L19.08 13.9419H19.2019L20.4204 9.31154H22.4208L20.1361 16.0946V20.9078H18.1661V16.3079L15.8205 9.31154H17.8006ZM40.6885 33.7124C40.6885 36.8095 38.1803 39.3176 35.0833 39.3176H15.6072C12.5102 39.3176 10.002 36.8095 10.002 33.7124V29.2039C10.002 26.1068 12.5102 23.5987 15.6072 23.5987H35.0833C38.1803 23.5987 40.6885 26.1068 40.6885 29.2039V33.7124Z" fill="white"/>
<path d="M33.6209 28.1478C32.9304 28.1478 32.3618 28.3611 31.9252 28.7876C31.4885 29.214 31.2651 29.7624 31.2651 30.4326V33.9257C31.2651 34.6771 31.4682 35.266 31.8642 35.6824C32.2603 36.1089 32.8086 36.3221 33.5092 36.3221C34.281 36.3221 34.8598 36.119 35.2456 35.723C35.6417 35.3168 35.8346 34.7177 35.8346 33.9257V33.5296H34.2404V33.885C34.2404 34.342 34.1896 34.6365 34.088 34.7685C33.9865 34.9005 33.8037 34.9716 33.5499 34.9716C33.3062 34.9716 33.1234 34.8903 33.0218 34.738C32.9203 34.5755 32.8695 34.2912 32.8695 33.885V32.4228H35.8346V30.4427C35.8346 29.7116 35.6417 29.143 35.2659 28.7469C34.8699 28.3408 34.3317 28.1478 33.6209 28.1478ZM34.2302 31.2043H32.8594V30.4224C32.8594 30.0975 32.9101 29.8639 33.0218 29.7218C33.1335 29.5796 33.3062 29.5085 33.5499 29.5085C33.7834 29.5085 33.956 29.5796 34.0677 29.7218C34.1794 29.8538 34.2302 30.0975 34.2302 30.4224V31.2043Z" fill="white"/>
</svg>
